<svg xmlns="http://www.w3.org/2000/svg" xmlns:xlink="http://www.w3.org/1999/xlink" viewBox="0 0 1225.2 608.88"><defs><style>.cls-1{fill:url(#linear-gradient);}.cls-2{fill:url(#linear-gradient-2);}.cls-3{fill:url(#linear-gradient-3);}</style><linearGradient id="linear-gradient" x1="613.11" x2="613.11" y2="608.88" gradientUnits="userSpaceOnUse"><stop offset="0" stop-color="#42210b"/><stop offset="0.08" stop-color="#f15a24"/><stop offset="0.16" stop-color="#f36c22"/><stop offset="0.31" stop-color="#f7931e"/><stop offset="0.61" stop-color="#fbb03b"/></linearGradient><linearGradient id="linear-gradient-2" x1="646.13" y1="303.81" x2="646.13" y2="575.15" gradientUnits="userSpaceOnUse"><stop offset="0" stop-color="#ff0"/><stop offset="0.05" stop-color="#fcf600"/><stop offset="0.14" stop-color="#f6dc01"/><stop offset="0.26" stop-color="#ebb302"/><stop offset="0.31" stop-color="#e59e03"/><stop offset="0.53" stop-color="#bf6f00"/></linearGradient><linearGradient id="linear-gradient-3" x1="612.6" y1="395.33" x2="612.6" y2="608.88" gradientUnits="userSpaceOnUse"><stop offset="0"/><stop offset="0.31" stop-color="#42210b"/><stop offset="0.52" stop-color="#301e12"/><stop offset="0.72" stop-color="#1a1a1a"/><stop offset="0.99" stop-color="#1a1a1a"/></linearGradient></defs><title>Asset 14</title><g id="Layer_2" data-name="Layer 2"><g id="Layer_1-2" data-name="Layer 1"><g id="background"><polygon class="cls-1" points="1225.2 607.76 1.02 608.88 1.02 394 1.02 0 1224.34 0 1225.2 607.76"/><ellipse class="cls-2" cx="646.13" cy="439.48" rx="155.42" ry="135.67"/><path class="cls-3" d="M0,418l17.4-2,6.14,2,13.31-2.67,10.24-2L53.23,412l9.22.67,10.23.66L85,410.67H96.23l10.23,2.66L117.72,410,130,407.33l6.14-3.33,4.1-6,8.19-2.67,15.35,3.34,15.36,4.66,11.26,2s4.09,4.67,18.42,4,36.86-.66,36.86-.66,4.09-10,11.26-12,29.68,8,29.68,8l21.5-1.34,17.4-6,5.12,6,4.1,2.67,6.14.67,9.21-3.34s3.07-4,6.15-4a61.5,61.5,0,0,1,9.21,1.34l10.24,6,8.19,1.33h11.26l9.21,2,8.19,2.67,6.14,1.33,16.38,2.67,8.19,3.33,8.19,1.33,9.21-.66,8.19-1.34A49.65,49.65,0,0,1,477,420c3.07.67,9.21,2.67,9.21,2.67a38.85,38.85,0,0,0,6.15,2c3.07.66,11.26,2,11.26,2L524.13,428h14.33l4.1-1.33A114.44,114.44,0,0,1,553.82,424l10.24,2,4.09,2.67,9.21,2L590.67,428l6.14-4.67s-2-2,4.1-1.33,10.24,1.33,10.24,1.33a55,55,0,0,1,7.16-.66c3.07,0,8.19-4.67,11.26-1.34s1,8,1,8l4.09,3.34s16.38,2.66,19.45,1.33a22.51,22.51,0,0,0,6.14-4.67l-1-4.66c7.17-.67,11.26-3.34,14.33-.67l3.07,2.67S683.83,432,689,432s11.26-1.33,14.33-.67S718.63,428,718.63,428l6.15-.67h5.11l7.17.67,5.12,2.67h9.21l7.17-.67,6.14.67,10.24,6.66a21.73,21.73,0,0,0,6.14,2.67c3.07.67,14.33,2,14.33,2s1,.67,6.14,1.33,17.41,2,17.41,2l14.33-.66,9.21-4s8.19-.67,11.26-.67,12.29,1.33,12.29,1.33l9.21.67,10.24.67s12.28-1.34,15.35-2.67,10.24-4.67,10.24-4.67l8.19-4h7.16l8.19,1.34,10.24.66,13.31-2.66,10.23-4s9.22,3.33,37.88,2,38.9-4,53.23-4.67,38.9,4.67,48.12,1.33,37.87-17.33,54.25-14.66,63.31-15.34,63.31-15.34V607.76L1,608.88,0,418Z"/></g></g></g></svg>