<svg xmlns="http://www.w3.org/2000/svg" viewBox="0 0 228.37 277.38"><defs><style>.cls-1{fill:none;stroke:#009245;stroke-miterlimit:10;stroke-width:0.5px;}.cls-2{fill:#c1272d;}.cls-3{fill:#ed1c24;}</style></defs><title>Asset 3</title><g id="Layer_2" data-name="Layer 2"><g id="Layer_1-2" data-name="Layer 1"><g id="Poppy"><path d="M227.81,131l-.19-3.56-.68-3.55-.38-3.44-.06-3.3-1.06-1.63-2.62-.06-4.12,1.06-6.93.19-10.17.75-6.37.43-3.31.63-1.49.56-.75.06.87-1.12,1.62-1.75,1.38-1.56,2.87-2.06,1.81-1.56,6.43-3.74,3.12-1.25,4.68-4.37,2-2.75,1.18-1.62,1.19-1.19.25-1.06V93l-1.19-3.49-2-5.37-2.24-4.49L207.78,73l-5.43-10.3.25-1.75,1.06-1.18-.25-1.69-3.12-3.31-3.06-3.3-5.37-5.19-1.43-.37-3.19-1.37-3.68-1.75-4.87-1.37-2.24-1.25-2.69-2.44L172.51,37,172,35.77l-.56-1.5-.13-1.81-.18-2.74.06-1.69.44-2.93,1.18-.19,2.56-.44,2.25-.43,5.74-1.81c1.5,0,4.31-3,4.31-3l-2.19-.81L182,17l-1.06-.56-1.31-2.06c-21.53-32-37.82-.5-37.82-.5l-1.25,1.69L138.25,17l-3.37.88-2.81.93a9.58,9.58,0,0,0,3.37,2.75,37.6,37.6,0,0,0,6,1.87L141.24,25l-.31,2-.12.87.06,1.94a7.71,7.71,0,0,1-.69,1.81,3.94,3.94,0,0,0-.5,1.31l-.06,1.37.06,1.44.25.69.13.81.06,1.06.06,1.31.25.5.63.12,1.06-.12,1.62-.44-.75-2-.94-2.43L141.56,33V31.4l.06-1.25.31-1.06.56-1.56.56-1.25-.12-1.12V23.91l.44-.62s-.13,1.56,3.68,1.31S150.48,26,150.48,26s.56,6.55.69,8.74-3.44,3.93-3.44,3.93l-2.62.87-4.37,1.63s-11.73,2.37-12.6,5.93-5.25,9.55-5.25,9.55l-3.43,4.74,4.25,3.37L123.33,66,122,68.41,121.58,73l-.25,3.37.07,2.87-.07,3.87.38,4.43-1,3.25-1,4.8L119,97.18l.13,3.25v5.12l-.13,5.12s.94,5.55,1.56,8.67-1.06,3.81-1.06,3.81l-.62-.44-.75-.31-.31.31-.44.88-1.31.68-.94.07-.81-.25-1.5.56-3.24.37-11.3,2.31-3.56.69-3.74,1.18-4.06.75-5,.81-3.31.44-3.81.75-1.69.37-1.68.82-2.31.62-1.19-.06H67.1l-1.19.62-17.54,2.62-.87-.25V136l.06-1.19-.37-1.31-1.38.06-1.68.44-.44.5.62,2.62-.43.25-.56-.44-.88.44-.25,1.25.36,1,.52,1.52-1,.12-13.42,2.5s-5.12,1.12-14.48,2.12S0,150.11,0,150.11c3.25.69,14.36-.37,14.36-.37l29.27-4.62L44.75,147l1-.06-.25-2.37,16.66-2.87,2.25.31,2.12.12.13-1.93h.56l2.81-.75,3.24-.38,19.17-3.43.31.81,1.18,2.87,1.13,1.32,1.12,2.18,1.31,2.87,3.25,2.43,3.18,2.63,7.18,7.67,8.11,8.43,2.37,2.37,2,1.69-.5-3.12-.44-.44s-2-2-2.31-2.19a15.91,15.91,0,0,1-1.56-1.93l-1.93-1.62-1.5-1.88L113,157.66l-3.62-4.3-2.18-2.75-2.81-2.68-1.5-2.44-1.69-1.93s-1.49-1.44-1.68-1.56l-1.87-1.31-.25-1-.38-.94-.93-.75-.88-2.37,21.1-2.12.81.25.44,2.5.5,2.87-.07,2.93.69,4,1.31,3.68,3.37,5.68.06,3.93-.37,2.56.06,5.87.81,4.93-1.12,6.36-.38,13.86v1.5l-1.49,3-.75,3.37-.38,8.24.75,6.37,1.13,4.87,1.12,5.24v6.36l-1.5,4.87-1.12,6.37.37,5.24.38,4.87-1.5,5.24-1.5,4.5-.37,9.36.25,3.81s10.61.75,10.86.5,10.11.5,10.11.5l-.19-2.38s-.69-2.62-.69-2.87a31.06,31.06,0,0,1,.44-3.18,30.09,30.09,0,0,0,0-4.68c-.12-1,.31-3.06.31-4.87a35.3,35.3,0,0,1,.63-4.87c.12-1.06-.19-5.49-.19-5.68s1.62-5.68,1.62-5.68l2.5-12.79.06-4.31.69-9.3s.12-4.18.12-4.43,1.75-6.3,1.75-6.3l1.81-5.56,1.12-4.18.69-3.62.75-4.18.6-2.81c2.53,1.18,13.5,2.81,13.5,2.81l1.19,1,2.43,11,2.19,7.56.37,4-.5,4.37,1,8.92-.25,9.43s1.13,8.86,1.25,9.3.94,5.74.94,5.74l1.31,8.68L172,271.45l-2.87,5.93,25-.82-1.69-1.93s.13-6.87.07-7.49-.63-5.87-.63-5.87l.81-5.18,1.81-12.29a23.72,23.72,0,0,0-2.56-3.19c-.5-.25-.31-5.43-.31-5.43l-.5-6.68,1.19-10.86-1.37-11.85,1.24-4.12-.43-3L190,195.24l-.56-6.18.56-4.12.87-5.24,1.19-2.31-.19-4.12-.42-2.64c.12.11.26.1.42-.11,1.19-1.56,5.06-16.29,5.06-16.29l2.24-12.61.13-2.87v-1.56l-.25-2-.56-2-.88-1.06.5-1.44s7.8.94,8,1,5.12.94,6.12,1.19,6.18.93,6.74,1.06,4.12.31,4.12.31l4.62.37.68-1.93Zm-64.16,55.18-1.93-.13-2.25-.37-5.74-.82-2.5-.93-.23,0c0-.35.08-.7.11-.84.06-.32,1.49-4.06,1.49-4.06l1.38-2.56,1.06-3.93.87-3.56-.19-3.62.94-3.43.37-1.62.57-1.25,1.56,6.93,3.49,14.1,1.19,4.74Zm20.16-76-1.5-2.62s.75-3,.38-4.12a19.92,19.92,0,0,1-.38-4.12,38.41,38.41,0,0,0,.38-4.12c0-1.5.37-4.87.37-4.87L184.18,84l1.5-4.49a22.57,22.57,0,0,0,1.13-4.87c0-1.12,1.87-5.24,1.87-5.24l4.49,4.12.75,3,3,4.5,2.62,3.37,4.12,3-.38,3L201,94.44l-3.75,3.74-3,3.37-2.63,2.63-5.24,3.74Zm12.48,22.53-.62.25s-.25,2.43-.31,2.62a12,12,0,0,1-1.25,1.68,7.91,7.91,0,0,0-.81,1.32l-.5,2.24s.06,2.81.06,3,.25,3.37.25,3.62-.25,3.93-.25,3.93l-.81,6.37-1.69,5.43s0,.47.06,1.16l-.37-2.29-.5-2.43-.37-5.37.31-3.31.25-2.37-.5-2.56.5-2.37-.69-2.5-1.18-3.68-.5-5.55.87-.13,1.69-.68,1.18-.69,3-.19,2.31.44.19.87Z"/><path class="cls-1" d="M42.55,140s-6.84,1.53-7.72.4-3.12-.75-5.25-7"/><ellipse class="cls-2" cx="25.5" cy="132.74" rx="4.92" ry="4.17"/><ellipse class="cls-3" cx="28.54" cy="129.82" rx="4.42" ry="3.71" transform="translate(-69.84 40.44) rotate(-35.34)"/><ellipse class="cls-2" cx="24.83" cy="128.69" rx="4" ry="3.79"/><ellipse cx="25.71" cy="131.49" rx="0.88" ry="1"/></g></g></g></svg>