<svg xmlns="http://www.w3.org/2000/svg" viewBox="0 0 443.99 709.43"><title>Asset 17_1</title><g id="Layer_2" data-name="Layer 2"><g id="Layer_1-2" data-name="Layer 1"><path d="M94.22,299.11l4.26-3.36,2.44-9.46,5.78-6.4,2.44-6.41,5.18-11.9-.31-5.79C82.56,210.63,91.48,149.21,94.58,133H43.92l41.55-25.45c9-119.24,223-166.08,250.67,1.26L380.47,133H322.29l0,.19s-12.49,17.38,19.49,46.37,5.1,37.83,5.1,37.83S336,219.18,338.16,221,344,244.5,344,244.5l1.77,1.56,1-3.39,2.44-6.41,3.35-5.8,5.78-2.13,6.4,1.52,2.74,4v4.88l-1.52,6.41-.31,12.2-.91,25s-.3,14.34,2.44,15.56,6.09,7.62,6.09,7.62l2.13-5.18,5.48-7,4.26-2.44h6.7l6.1,2.74,3.95,5.5,1.53,7.32-3.35,11,10.66,3.66c10.66,3.66,7,18.31,7,18.31h5.48l5.18,2.74,4.87,3.66,3.05,4,4,4.57,1.22,7.33.3,8.84,2.28,5v25.63l-3.32,10-13.27,39.4,2.37,5.22-.94,7.59-1.9,22.78,2.84,6.17,6.16,16.14-1.42,16.14,2.84,23.25,1.9,10.44,4.74,7.6s-8.53,19.93-6.64,25.62-19.42,85.91-19.42,85.91-13.74,22.78-32.69,25.15-55.44-19.36-55.44-19.36v26.26H0V343.65ZM337,255.18a45.51,45.51,0,0,1,5.26,6.36l.83-2.7,1.38-7.41Zm-84.06,99.75,6.7,5.5,6.7,7,7,7.63,4.88,7,5.78,8.84,11.58,20.44,6.09,10.07,4,14.64,2.74,11V459l1.82,4,2.44,4,3.35,6.1,1.52,8.23,4,10.38,5.49,13.12,4.26,5.49,6.7,3.35,9.14,7,5.17-.31,2.13-13.11.31-10.38,2.13-6.71.91-25.93-3-20.74-4.26-9.77-6.1-12.5-1.52-9.77-5.48-24.1-.61-9.46,2.13-7.62,1.53-11.6.3-11.28V328.7l.61-11-.31-40.27V271.4a14.06,14.06,0,0,1-1.82.25c-13.71.91-11.27,4.27-11.27,4.27,15.53,22.27.91,30.81-1.83,35.08s-27.71-.3-27.71-.3c-29.85-.31-35.33,13.42-35.33,13.42l-2.74,8.24-10.36,16.78Z"/></g></g></svg>