<svg xmlns="http://www.w3.org/2000/svg" viewBox="0 0 187.23 66.28"><defs><style>.cls-1{fill:none;stroke:#000;stroke-miterlimit:10;stroke-width:0.25px;}.cls-2{isolation:isolate;font-size:7.4px;fill:#fff;font-family:Impact, Impact;}</style></defs><title>Asset 4</title><g id="Layer_2" data-name="Layer 2"><g id="Layer_1-2" data-name="Layer 1"><g id="_11th_date" data-name="11th date"><path d="M109.86,34.93a3.6,3.6,0,0,0-1.9-1.14c-2.38-.64-4.76-1.32-7.14-2-.3-.08-.35-.22-.35-.53a11.4,11.4,0,0,1,.84-3.45,12.79,12.79,0,0,0-.78-9.67,2.51,2.51,0,0,0-1.9-1.52A6.43,6.43,0,0,0,93,17.88,33.46,33.46,0,0,0,86,26.68c-2.47-.41-5-.85-7.44-1.21a8.84,8.84,0,0,0-4.59.28.73.73,0,0,1-.36,0l-4.59-1.51-10.65-3.5L45,16.36c-2.27-.75-4.54-1.5-6.81-2.23C37,13.75,35.83,13.4,34.66,13c-1.35-.44-2.68-.92-4-1.36L16,6.88C14,6.23,12,5.53,10,5a31.35,31.35,0,0,0-6.82-.91,19.08,19.08,0,0,0-2.62.13c-.19,0-.36.2-.54.31.12.19.2.44.37.54.68.41,1.38.81,2.09,1.15,2,.94,4,1.85,6,2.76a1.06,1.06,0,0,1,.67.7c.62,1.85,1.28,3.69,1.91,5.54q2.12,6.16,4.22,12.34c.27.79.53,1.58.82,2.43-1.07-.18-2-.34-3-.52a6.76,6.76,0,0,0-3.64.42c-.75.29-.81.74-.17,1.22a2.94,2.94,0,0,0,.47.31c1.73.91,3.44,1.85,5.2,2.7,1.35.65,2.75,1.19,4.15,1.79-.07.77-.14,1.57-.21,2.39l-.48.11a6.14,6.14,0,0,0,.12.86l-.38.1c-2.13.47-4.25.92-6.37,1.43A2.35,2.35,0,0,0,10,42.18c-.3.79,0,1.5.83,1.6a6.06,6.06,0,0,0,2.12-.17,11.45,11.45,0,0,0,3.53-1.8c.76-.51,1.5-1.06,2.28-1.61l.1.53.13-.07a2,2,0,0,1,.34.51A11.83,11.83,0,0,0,20.94,45a4.9,4.9,0,0,0,3.93,2.47c1.25.06,2.5.15,3.75.22h1.06L28.83,49l-.47-.16a6.36,6.36,0,0,0-3.17-.44c-.93.16-1.85.34-2.76.55a3.55,3.55,0,0,0-2.64,1.75c-.84,1.66-1,3.2.8,4.5a.92.92,0,0,1,.28.42,2.93,2.93,0,0,0,2.71,2A3,3,0,0,0,26.47,56a.91.91,0,0,1,.42-.38,4.47,4.47,0,0,0,2-1.37c1.45-1.89,3.53-2.76,5.68-3.54l5.85,7.7-.89,1.53a2.15,2.15,0,0,0,.5,3h0a1.36,1.36,0,0,1,.47.77,1.51,1.51,0,0,0,.38.56,5.23,5.23,0,0,1,.45.49,2.93,2.93,0,0,0,4,1.18,2.85,2.85,0,0,0,1.33-1.49,1,1,0,0,1,.22-.34c.83-.6,1.66-1.17,2.49-1.76a11.06,11.06,0,0,0,1.36-1A6.94,6.94,0,0,0,52,59.8c.47-.82.23-1.38-.61-1.79-.34-.17-.7-.28-1-.46a10.6,10.6,0,0,0-5.65-1,1.22,1.22,0,0,1-1.41-1,1.09,1.09,0,0,1,0-.36c0-2.19-.06-4.39-.08-6.58V47.3a9.23,9.23,0,0,1,4,.51c6.12,1.93,12.24,3.84,18.34,5.81,5.3,1.71,10.65,3.23,16,4.69a29.8,29.8,0,0,0,9.73.82,6.16,6.16,0,0,0,1.93-.53c.52-.22.54-.59.12-.94a3.09,3.09,0,0,0-.8-.48c-1.61-.62-3.22-1.21-4.83-1.81l-4.17-1.54V53.6l1.35-5.9q1-4.48,2.07-9a.74.74,0,0,1,.31-.46c.84-.3,1.68-.59,2.54-.82a1.89,1.89,0,0,1,1.51,0c.33.2.68.39,1,.6a1.8,1.8,0,0,1,1.05,1.74,2.32,2.32,0,0,0,.07.46A1.55,1.55,0,0,0,95,41.81a1.51,1.51,0,0,0,.85-.23A1.34,1.34,0,0,0,96.62,40c-.09-.71-.55-1.32-1.12-1.33a1.55,1.55,0,0,1-1.24-.63,4,4,0,0,1-1.1-1.88.87.87,0,0,1,.41.06c2.09.52,4.17,1.07,6.27,1.54,1.23.27,2.5.42,3.75.59.22,0,.6-.07.65-.21a1.11,1.11,0,0,0-.08-.78,1.44,1.44,0,0,0-.52-.52,4.7,4.7,0,0,0-.69-.39l-2-1.12a1.06,1.06,0,0,1,.5,0c1.78.26,3.56.55,5.35.76a18.35,18.35,0,0,0,2.67.11,1.13,1.13,0,0,0,.83-.44A1.85,1.85,0,0,0,109.86,34.93Zm-74.77-15,4.76,1.73c.19.07.37.1.32.4-.32,2.32-.62,4.65-.93,7a.84.84,0,0,1-.05.17h0c-1.07.12-1.07.12-1.59-.81l-5-9c-.07-.13-.13-.27-.24-.49ZM22.15,31a.56.56,0,0,1-.38.08c-1.61-.31-3.22-.63-4.83-1a.56.56,0,0,1-.32-.32c-.94-2.71-1.86-5.42-2.79-8.12Q12,16.29,10.13,10.93c-.16-.45-.29-.91-.46-1.45l2.89,1.25c1.45.62,2.9,1.25,4.35,1.85a1,1,0,0,1,.64.67q3,8.28,5.93,16.56a1,1,0,0,1,.06.23,16.36,16.36,0,0,1-1.39,1ZM24,29.73,18.07,13.11c1.08.45,2.08.85,3.06,1.27a.87.87,0,0,1,.27.41l4.86,13.86c.06.16.11.32.17.5Zm2.92-.61L21.87,14.7l1.55.61c2.59,1,5.17,2.06,7.76,3.07a.65.65,0,0,1,.48.74c-.19,3.11-.37,6.22-.56,9.33a2.81,2.81,0,0,1-.06.67Zm5,21.34a1.94,1.94,0,0,1-1.22-1.23.68.68,0,0,1,.11-.39c.21-.32.44-.64.68-.94a.52.52,0,0,1,.73-.07l.07.07c.48.62.94,1.24,1.46,1.92-.62.22-1.11.76-1.8.62Zm-.28-21.35c.19-3.09.36-6.14.54-9.18h.1l5.12,9.21-.06.16Zm3,18.33,3.56-.27v.19l-2.56,1.47Zm6.74,9.42c-1.76-2.39-3.41-4.77-5.13-7.16l4.27-2.22c.35,1.17,1.12,8.8.82,9.38ZM42.9,29H39.74c.31-2.33.62-4.71.95-7.14,1.78.57,3.51,1.13,5.29,1.72l-1,1.78c-.6,1.11-1.2,2.23-1.81,3.34-.07.13-.21.29-.31.3Zm.57-.1,2.69-5h.11c.33,1.64.65,3.27,1,5Zm8.27-1.38a1.42,1.42,0,0,0-2.6-.07,9.86,9.86,0,0,0-.61,1.37h-1c-.33-1.64-.67-3.32-1-5L54,25.37l-1.92,2.84a3,3,0,0,0-.42-.66ZM59,29a21.69,21.69,0,0,0-5.63-.28H52.14c.54-.8,1-1.53,1.51-2.24.73-1.09.73-1.09,2-.75l7.29,1.93H63l.55.45a3.59,3.59,0,0,1-.5.37A6.06,6.06,0,0,1,59,29Zm3.81,16.69c1.28-1,9.89-3.27,12-3.85-.5,2.68-1,5.35-1.52,8.08-3.55-1.36-7.11-2.57-10.52-4.23Zm14,5.56-2.59-1c-.25-.09-.32-.21-.26-.49.49-2.54,1-5.09,1.45-7.65a.77.77,0,0,1,.64-.7c2.12-.6,4.24-1.23,6.35-1.85a1.13,1.13,0,0,1,.26,0c-.87,4.33-1.73,8.61-2.59,12.93Zm6.32,2.37c-.8-.3-1.53-.59-2.29-.85-.3-.11-.25-.29-.21-.51.4-2,.79-3.93,1.18-5.89.45-2.2.88-4.41,1.34-6.62a.54.54,0,0,1,.29-.45c1-.34,2.08-.63,3.22-1-1.22,5.16-2.39,10.2-3.57,15.32Z"/><path class="cls-1" d="M100.56,27.67l14.67-2.34s5.67-8.5,4.17-13.33l-18.87,6.14"/><path d="M119.4,12s50.5-3,67.83-12l-1.5,17s-54.17,12.5-70.5,8.33C115.23,25.33,119.9,18,119.4,12Z"/><text class="cls-2" transform="matrix(1.32, -0.19, 0.15, 0.99, 124.81, 22.33)">November 11th</text></g></g></g></svg>