<svg xmlns="http://www.w3.org/2000/svg" viewBox="0 0 135.74 82.3"><title>Asset 7</title><g id="Layer_2" data-name="Layer 2"><g id="Layer_1-2" data-name="Layer 1"><path d="M15.62,76.31l-8.74-.65H3.72L.84,74.73,0,73l.74-2.51,1-1,.65-1,.74-2.88,1.39-2.88L5,61.26l-4.18-1v-1l.37-2.79,1.67-3.9,1.58-5.11,6.23-15.9,1.86-4S14,23.61,16.08,22s5.67-5.21,5.67-5.21l3.9-4.46,2.42-2.14,2.14-1.3h5.86l2-2.13.74-1.4.93-1.21S42.11,3,43.59,3.35s2.24-2,2.24-2L47.41,0V2.14S46.1,4.28,47.41,5a8,8,0,0,1,3.16,7.44H48.71l-.93-.1-.37,1.86.09.93H46.29l-1.12.93-1.11.56-1.4-.09-1,.37L41,18.31l-.56,1.86-.37.93s8.83,6.6,14.69,8.18l.2.44.86.06,3,0,2.93-.58,3.16.11h1.06l4.92-.93S84,19.18,84.32,16.25l-1.52-.59-1.29-1.17-1.4-1.76.12-1.17H78.47l-.24-1.75,1.06-1.17L80,6.18l-1.4-1.06S77.65,2.43,79.87,2,91.59.79,92.52,5s0,4.22,0,4.22l3-2.46,3.28-.94,3.74.94s10.31,2.11,11.13,1.88,3.4,9.83,3.4,9.83L120.63,24l3.51,6.91,8.55,21.31L134.22,56l-2.7,1.87-.23,2.7,1.4,5,1.53,6.56,1.52,5v2.93l-3.63,1.64-4.1.58-2.69-1.64L127,78.79l1.4-1.06.7-2-2.46-7.38-3.28-4.21-1.64-3.87-.7-1.17-2.81.12-1.29-1.52-3.28.23-7.14.7L106.11,63l-1.17,3.63-.59,2.69-.12,3,.36,2.34.58,2.46-2.22.47-4-1.29-4.56.82-5.16-.82-.47-2.58h4.46l.93-1L96,70.36,97.91,67l-.23-5.86V59.58l-7.27.59V53s-2.34-19.44-2.92-20.26-3-.7-3-.7l-.35-1.41-2.58,1.06S73.2,35,71.68,37L69.1,34.75l-4.22,3.63-2.22.12-1.41,1L60.08,37.8l-2-.12H56.57l-1.06-1.17-2.22-2.58-1.76,2.46s-16-7.14-16.86-8.08-2.93,5.51-2.93,5.51l.7,31.27-2.34.35L31,71.29l2,.94,3.75,2,2.1,1.29-2.22,1.4L31,77l-5.51-.23-.7-3-1.17-4.57-1.41-3.74s-9.13-.71-10.77-2V65l-.94,2.93L10,69.54v2.22l1.75.94,2.93.94Z"/></g></g></svg>