<svg xmlns="http://www.w3.org/2000/svg" viewBox="0 0 305.06 134.55"><defs><style>.cls-1,.cls-2,.cls-3{stroke:#020202;stroke-miterlimit:10;}.cls-1{stroke-width:0.5px;}.cls-2{stroke-width:0.35px;}.cls-3{stroke-width:0.17px;}</style></defs><title>Asset 8</title><g id="Layer_2" data-name="Layer 2"><g id="Layer_1-2" data-name="Layer 1"><g id="Airforce"><path class="cls-1" d="M118.61,41.26l3-15.37c3.07.26,6.14.74,9.19,1.19a7,7,0,0,1,2.38,1.15l7-.51c.21,1.59.35,2.66.39,2.92,1.35-.75,2.95-1.5,4.39-2.46,2.24-1.5,4.37-3.15,6.55-4.73L151,22.21c-1.17-.24-2.34-.55-3.52-.69-13.14-1.64-26.37-2.71-39.39-5C86.93,12.78,65.91,8.35,44.89,4c-11.61-2.39-23.09-6-35-1.95L4.94,3.74,5,4.94,54.19,15.81c.14,1.35.25,2.42.25,2.47.35-.12.69-.25,1-.39L53,31.23Q46.68,30,40.43,28.74c-12.26-2.52-24.49-5.3-37-1.18L.27,28.61c0,.36.07.72.1,1.07L25,34.94,19.16,37a13.62,13.62,0,0,0,2.51,1.07c6.19.74,12.41,1.36,18.59,2.19A21.86,21.86,0,0,1,44.67,42l1-1.22c.49,1.63,0,3,.27,4.23.36,1.48,1.12,3.56,2.23,4s2.79-1,4.16-1.74c1.73-.93,3.36-2.8,5.08-2.86,5.17-.17,10.35.34,15.44.58a16.76,16.76,0,0,0,.08,4.22A4.45,4.45,0,0,0,75,51.82c.62.26,1.79-.89,2.74-1.34,1.32-.61,2.69-1.66,4-1.61,3.1.12,6.17.85,9.27,1.2,2.21.25,3.9.71,4.88,3.21s3.38,2.51,4.63-.13c.83-1.73,1-3.76,1.59-5.88l3.65.34c10.31,1.06,20.63,2.07,30.93,3.21,4.71.52,8.17-1,10.56-5.72-1.86-.42-3.39-.92-4.95-1.11C134.42,43.06,126.51,42.21,118.61,41.26Zm-59.51-9-5.5-1.37,2.75-14.25,4.5.87Zm4.71,1.09-4.11-.79L61.43,19c.41-.33,1.35-1.3,2.25-1.26,4.21.16,8.52.24,12.57,1.23,2.55.62,5,.33,8.51,1-1.86,1.8-4.09,3-4.56,4.69Zm26.11,15L80.07,47c.57-1.28,1-2.15,1.37-3.09l8.8,3.54Zm19.66-8.14A123.94,123.94,0,0,1,97,38.66c-.57-.1-1.41-2.56-1-3.43,1.69-3.8,3.79-7.41,6.07-11.7l12,1.77v2.81L111.6,39.3C111.3,39.44,110.41,40.24,109.58,40.17Zm2.77.2L115,25.49l5.5.38L117.73,41Z"/><polygon class="cls-1" points="257.65 109.28 263.84 113.25 260.18 110 257.65 109.28"/><path class="cls-1" d="M292.59,117.28c5.71,1.35,9,.58,12.05-3.43-1.3-.33-2.47-.66-3.66-.91-9-1.87-18.17-3.36-27.09-5.68-11.1-2.89-22-6.44-33-9.75-5.43-1.62-10.61-.21-15.89,1a142.75,142.75,0,0,0,13.63,5.11c4.73,1.56,9.71,2.59,14.17,4.7a10.9,10.9,0,0,0,3.84.86l-.87,7.13-3.21,1.16a5.33,5.33,0,0,1-2.91-.32c-3.59-1-7.18-2.11-10.72-3.31-6-2-11.78-.9-17.67,1.05l6.45,2.21.06,1.2-9.84,1.41c4.23,2.17,9.12,1.61,12.14,5.76.39.54,1.88.43,2.85.41,8.16-.17,16.32-.3,24.48-.62,2.72-.11,4.76,0,4.39,3.58a2,2,0,0,0,3.84,1.21c1.15-1.91,2.2-2.38,4.17-1,.8.58,2.21.3,3.31.41a17.28,17.28,0,0,0,.59,2.93c.82,2.12,2.73,2.5,3.53.6,1.34-3.22,3.42-2.5,5.73-2,2.82.55,5.69.9,8.46,1.64,4,1.07,6.77-.88,10.2-3.67l-16.17-3.21,2.07-9.52C289.15,116.55,290.87,116.88,292.59,117.28Zm-28.75-4-7.24,2.58,1-6.55c3.07.14,6.28.08,9,2.88Zm17,11.61.17-.64-5.1-3.26c1.81-1.77,3.63-3.57,5.77-5.68l1.65.28L281,124.22l1.52,1Zm3.95.88-3.09-1.33,2.09-8.67,3.08.59Z"/><path class="cls-2" d="M150.37,79.67c4,.94,6.37.41,8.48-2.42-.92-.23-1.74-.46-2.57-.64-6.36-1.31-12.78-2.36-19.06-4-7.8-2-15.49-4.53-23.22-6.85-3.82-1.15-7.46-.15-11.18.72a99.68,99.68,0,0,0,9.59,3.6c3.33,1.09,6.83,1.82,10,3.3a7.49,7.49,0,0,0,2.69.61l-.61,5-2.25.82a3.8,3.8,0,0,1-2-.23c-2.53-.74-5-1.48-7.54-2.33-4.21-1.43-8.28-.63-12.43.74l4.54,1.56,0,.84-6.92,1c3,1.53,6.41,1.14,8.54,4,.28.39,1.32.31,2,.29,5.74-.11,11.48-.21,17.22-.43,1.92-.08,3.35,0,3.09,2.52a2,2,0,0,0,1,1.59,1.92,1.92,0,0,0,1.7-.74c.81-1.35,1.55-1.68,2.93-.68.56.41,1.56.22,2.33.29a11.39,11.39,0,0,0,.42,2.06c.57,1.49,1.91,1.76,2.48.42.94-2.26,2.41-1.75,4-1.44,2,.39,4,.63,5.95,1.15,2.83.76,4.76-.61,7.17-2.58l-11.37-2.26L146.8,79C148,79.15,149.17,79.38,150.37,79.67Zm-20.21-2.84-5.1,1.82L125.8,74c2.16.1,4.42.06,6.34,2ZM142.1,85l.12-.45-3.59-2.29,4.06-4,1.16.2-1.63,6.09,1.06.68Zm2.77.62-2.16-.94,1.46-6.09,2.17.41Z"/><path class="cls-3" d="M238,56.46l1.22-5.21c1,.13,2.08.33,3.11.52a2.49,2.49,0,0,1,.8.42l2.4-.08.09,1c.47-.23,1-.47,1.53-.78.78-.48,1.53-1,2.29-1.53l-.18-.43c-.4-.1-.79-.22-1.19-.28-4.46-.72-9-1.24-13.37-2.18-7.15-1.53-14.26-3.3-21.37-5-3.93-1-7.8-2.31-11.91-1.08-.57.16-1.14.34-1.7.51v.41L216.3,47l.06.84a2.06,2.06,0,0,0,.35-.12l-1,4.52-4.23-1c-4.15-1-8.28-2.11-12.58-.85l-1.11.32,0,.36,8.31,2.09-2,.65a4.45,4.45,0,0,0,.84.39c2.1.33,4.21.62,6.31,1a6.93,6.93,0,0,1,1.48.61l.36-.4c.15.56,0,1,0,1.44s.34,1.23.71,1.38,1-.3,1.44-.54,1.18-.91,1.77-.91c1.76,0,3.52.24,5.25.38a5.38,5.38,0,0,0,0,1.44,1.52,1.52,0,0,0,.68.94c.21.1.62-.28.95-.42a3.51,3.51,0,0,1,1.38-.5c1,.08,2.09.36,3.14.52a1.7,1.7,0,0,1,1.63,1.16c.31.9,1.12.89,1.58,0a11.37,11.37,0,0,0,.61-2l1.24.16c3.5.49,7,1,10.5,1.47a3.23,3.23,0,0,0,3.67-1.82c-.63-.16-1.14-.35-1.68-.43C243.31,57.26,240.63,56.88,238,56.46Zm-20.17-3.8-1.86-.54L217,47.3l1.52.35Zm1.59.43L218,52.77l.75-4.61c.15-.11.48-.43.79-.41a21.63,21.63,0,0,1,4.26.58c.87.24,1.72.17,2.89.44-.65.59-1.43,1-1.61,1.54Zm8.72,5.42-3.35-.57c.21-.43.36-.72.51-1l2.95,1.31ZM234.88,56a41.35,41.35,0,0,1-4.28-.66c-.19-.05-.44-.89-.3-1.18.62-1.28,1.38-2.48,2.21-3.92l4.08.75,0,1-1,3.78C235.48,55.75,235.16,56,234.88,56Zm.94.11,1.08-5,1.87.19-1.12,5.12Z"/></g></g></g></svg>