<svg xmlns="http://www.w3.org/2000/svg" viewBox="0 0 455.92 152.73"><defs><style>.cls-1{fill:#ed1c24;}.cls-2{fill:#c1272d;}</style></defs><title>Asset 9</title><g id="Layer_2" data-name="Layer 2"><g id="Layer_1-2" data-name="Layer 1"><g id="Poppies"><path class="cls-1" d="M152.71,83.61c0,1.47-.74,1.9-1.66,1.9s-1.67-.43-1.67-1.9.79-2.06,1.71-2.06S152.71,82.15,152.71,83.61Z"/><ellipse class="cls-2" cx="148.88" cy="85.18" rx="3.09" ry="2.84"/><ellipse class="cls-1" cx="148.5" cy="82.7" rx="2.42" ry="1.98"/><circle cx="149.42" cy="84.39" r="0.63"/><path class="cls-1" d="M121.27,86.05c0,1.54-.82,2-1.84,2s-1.85-.46-1.85-2,.87-2.17,1.89-2.17S121.27,84.52,121.27,86.05Z"/><ellipse class="cls-2" cx="117.02" cy="87.7" rx="3.42" ry="2.98"/><ellipse class="cls-1" cx="116.61" cy="85.09" rx="2.68" ry="2.08"/><ellipse cx="117.62" cy="86.86" rx="0.69" ry="0.66"/><path class="cls-1" d="M64.48,95.21a2.06,2.06,0,1,1-4.12,0,2,2,0,0,1,2.11-2.3C63.61,92.91,64.48,93.58,64.48,95.21Z"/><ellipse class="cls-2" cx="59.74" cy="96.95" rx="3.82" ry="3.15"/><ellipse class="cls-1" cx="59.27" cy="94.19" rx="2.99" ry="2.2"/><ellipse cx="60.41" cy="96.07" rx="0.77" ry="0.7"/><path class="cls-1" d="M104.73,63.48c0,1.77-.89,2.3-2,2.3s-2-.53-2-2.3.94-2.5,2-2.5S104.73,61.71,104.73,63.48Z"/><ellipse class="cls-2" cx="100.15" cy="65.38" rx="3.68" ry="3.44"/><ellipse class="cls-1" cx="99.7" cy="62.37" rx="2.88" ry="2.4"/><ellipse cx="100.8" cy="64.42" rx="0.75" ry="0.76"/><path class="cls-1" d="M87.54,73.91a1.28,1.28,0,1,1-2.55,0,1.25,1.25,0,0,1,1.3-1.42C87,72.49,87.54,72.9,87.54,73.91Z"/><ellipse class="cls-2" cx="84.6" cy="74.99" rx="2.36" ry="1.95"/><ellipse class="cls-1" cx="84.32" cy="73.28" rx="1.85" ry="1.36"/><ellipse cx="85.02" cy="74.44" rx="0.48" ry="0.43"/><path class="cls-1" d="M109.17,79c0,2.07-1.11,2.69-2.49,2.69S104.19,81,104.19,79s1.18-2.92,2.56-2.92S109.17,76.9,109.17,79Z"/><ellipse class="cls-2" cx="103.44" cy="81.19" rx="4.61" ry="4.02"/><ellipse class="cls-1" cx="102.88" cy="77.67" rx="3.61" ry="2.81"/><ellipse cx="104.25" cy="80.07" rx="0.93" ry="0.89"/><path class="cls-1" d="M86.49,88.26c0,1.37-.62,1.78-1.39,1.78s-1.39-.41-1.39-1.78.66-1.94,1.43-1.94S86.49,86.89,86.49,88.26Z"/><ellipse class="cls-2" cx="83.29" cy="89.72" rx="2.58" ry="2.66"/><ellipse class="cls-1" cx="82.98" cy="87.4" rx="2.02" ry="1.86"/><ellipse cx="83.74" cy="88.98" rx="0.52" ry="0.59"/><path class="cls-1" d="M100.06,94.33c0,1.46-.75,1.9-1.67,1.9s-1.67-.44-1.67-1.9.79-2.06,1.71-2.06S100.06,92.87,100.06,94.33Z"/><ellipse class="cls-2" cx="96.22" cy="95.89" rx="3.09" ry="2.84"/><ellipse class="cls-1" cx="95.85" cy="93.41" rx="2.42" ry="1.98"/><circle cx="96.76" cy="95.1" r="0.63"/><path class="cls-1" d="M92.57,61.07c0,.9-.57,1.17-1.27,1.17S90,62,90,61.07a1.17,1.17,0,0,1,1.29-1.26A1.14,1.14,0,0,1,92.57,61.07Z"/><ellipse class="cls-2" cx="89.66" cy="62.03" rx="2.34" ry="1.74"/><ellipse class="cls-1" cx="89.37" cy="60.51" rx="1.84" ry="1.22"/><ellipse cx="90.07" cy="61.55" rx="0.47" ry="0.38"/><path class="cls-1" d="M112.72,69.61c0,1.07-.55,1.38-1.24,1.38s-1.23-.31-1.23-1.38.58-1.5,1.26-1.5S112.72,68.55,112.72,69.61Z"/><ellipse class="cls-2" cx="109.88" cy="70.75" rx="2.29" ry="2.07"/><ellipse class="cls-1" cx="109.6" cy="68.94" rx="1.79" ry="1.44"/><ellipse cx="110.28" cy="70.17" rx="0.46" ry="0.46"/><path class="cls-1" d="M126.88,100.82c0,1.46-.75,1.9-1.67,1.9s-1.67-.44-1.67-1.9.79-2.06,1.71-2.06S126.88,99.36,126.88,100.82Z"/><ellipse class="cls-2" cx="123.04" cy="102.38" rx="3.09" ry="2.84"/><ellipse class="cls-1" cx="122.67" cy="99.9" rx="2.42" ry="1.98"/><circle cx="123.59" cy="101.59" r="0.63"/><path class="cls-1" d="M126.3,73.64a2.07,2.07,0,1,1-4.13,0,2,2,0,0,1,2.11-2.29C125.42,71.35,126.3,72,126.3,73.64Z"/><ellipse class="cls-2" cx="121.55" cy="75.38" rx="3.82" ry="3.15"/><ellipse class="cls-1" cx="121.09" cy="72.62" rx="2.99" ry="2.2"/><ellipse cx="122.22" cy="74.5" rx="0.77" ry="0.7"/><path class="cls-1" d="M71.59,80.32c0,1.06-.55,1.38-1.23,1.38s-1.24-.32-1.24-1.38.58-1.51,1.27-1.51S71.59,79.25,71.59,80.32Z"/><ellipse class="cls-2" cx="68.75" cy="81.46" rx="2.29" ry="2.07"/><ellipse class="cls-1" cx="68.47" cy="79.65" rx="1.79" ry="1.44"/><ellipse cx="69.15" cy="80.88" rx="0.46" ry="0.46"/><path class="cls-1" d="M76.68,68.61c0,2.07-1.11,2.68-2.49,2.68s-2.49-.61-2.49-2.68,1.18-2.93,2.55-2.93S76.68,66.53,76.68,68.61Z"/><ellipse class="cls-2" cx="70.95" cy="70.82" rx="4.61" ry="4.02"/><ellipse class="cls-1" cx="70.39" cy="67.31" rx="3.61" ry="2.81"/><ellipse cx="71.76" cy="69.7" rx="0.93" ry="0.89"/><path class="cls-1" d="M0,93.6c0-1.46.73-1.9,1.65-1.91s1.67.42,1.69,1.89-.78,2.07-1.7,2.07S0,95.06,0,93.6Z"/><ellipse class="cls-2" cx="3.82" cy="92.01" rx="3.09" ry="2.84" transform="translate(-0.68 0.03) rotate(-0.42)"/><ellipse class="cls-1" cx="4.22" cy="94.49" rx="2.42" ry="1.98" transform="translate(-0.69 0.03) rotate(-0.42)"/><circle cx="3.29" cy="92.81" r="0.63"/><path class="cls-1" d="M31.42,90.93c0-1.54.81-2,1.83-2s1.86.45,1.87,2-.86,2.17-1.88,2.18S31.43,92.47,31.42,90.93Z"/><ellipse class="cls-2" cx="35.66" cy="89.26" rx="3.42" ry="2.98" transform="translate(-0.65 0.26) rotate(-0.42)"/><ellipse class="cls-1" cx="36.1" cy="91.86" rx="2.68" ry="2.08" transform="translate(-0.67 0.27) rotate(-0.42)"/><ellipse cx="35.07" cy="90.09" rx="0.69" ry="0.66" transform="translate(-0.66 0.26) rotate(-0.42)"/><path class="cls-1" d="M88.15,81.36a2.06,2.06,0,1,1,4.12,0,2,2,0,0,1-2.1,2.31C89,83.65,88.16,83,88.15,81.36Z"/><ellipse class="cls-2" cx="92.88" cy="79.58" rx="3.82" ry="3.15" transform="translate(-0.58 0.68) rotate(-0.42)"/><ellipse class="cls-1" cx="93.36" cy="82.34" rx="2.99" ry="2.2" transform="translate(-0.6 0.69) rotate(-0.42)"/><ellipse cx="92.21" cy="80.47" rx="0.77" ry="0.7" transform="translate(-0.59 0.68) rotate(-0.42)"/><path class="cls-1" d="M48.13,113.38c0-1.77.88-2.3,2-2.31s2,.51,2,2.28-.92,2.51-2,2.52S48.15,115.15,48.13,113.38Z"/><ellipse class="cls-2" cx="52.69" cy="111.45" rx="3.68" ry="3.44" transform="translate(-0.82 0.39) rotate(-0.42)"/><ellipse class="cls-1" cx="53.16" cy="114.46" rx="2.88" ry="2.4" transform="translate(-0.84 0.39) rotate(-0.42)"/><ellipse cx="52.06" cy="112.42" rx="0.75" ry="0.76" transform="translate(-0.82 0.39) rotate(-0.42)"/><path class="cls-1" d="M65.25,102.83a1.28,1.28,0,1,1,2.55,0,1.25,1.25,0,0,1-1.3,1.43C65.8,104.24,65.25,103.83,65.25,102.83Z"/><ellipse class="cls-2" cx="68.17" cy="101.73" rx="2.36" ry="1.95" transform="translate(-0.74 0.5) rotate(-0.42)"/><ellipse class="cls-1" cx="68.47" cy="103.44" rx="1.85" ry="1.36" transform="translate(-0.76 0.51) rotate(-0.42)"/><ellipse cx="67.76" cy="102.28" rx="0.48" ry="0.43" transform="translate(-0.75 0.5) rotate(-0.42)"/><path class="cls-1" d="M43.57,97.92c0-2.07,1.1-2.69,2.47-2.7s2.5.6,2.52,2.67-1.16,2.93-2.54,2.94S43.59,100,43.57,97.92Z"/><ellipse class="cls-2" cx="49.29" cy="95.67" rx="4.61" ry="4.02" transform="translate(-0.7 0.36) rotate(-0.42)"/><ellipse class="cls-1" cx="49.87" cy="99.18" rx="3.61" ry="2.81" transform="translate(-0.73 0.37) rotate(-0.42)"/><ellipse cx="48.49" cy="96.79" rx="0.93" ry="0.89" transform="translate(-0.71 0.36) rotate(-0.42)"/><path class="cls-1" d="M66.18,88.47c0-1.37.61-1.78,1.38-1.79s1.4.4,1.41,1.77-.64,1.94-1.41,2S66.19,89.84,66.18,88.47Z"/><ellipse class="cls-2" cx="69.38" cy="86.98" rx="2.58" ry="2.66" transform="translate(-0.64 0.51) rotate(-0.42)"/><ellipse class="cls-1" cx="69.71" cy="89.31" rx="2.02" ry="1.86" transform="translate(-0.65 0.51) rotate(-0.42)"/><ellipse cx="68.93" cy="87.73" rx="0.52" ry="0.59" transform="translate(-0.64 0.51) rotate(-0.42)"/><path class="cls-1" d="M52.58,82.5c0-1.46.73-1.9,1.65-1.91s1.67.42,1.68,1.89-.77,2.07-1.69,2.07S52.59,84,52.58,82.5Z"/><ellipse class="cls-2" cx="56.4" cy="80.91" rx="3.09" ry="2.84" transform="translate(-0.59 0.42) rotate(-0.42)"/><ellipse class="cls-1" cx="56.79" cy="83.39" rx="2.42" ry="1.98" transform="translate(-0.61 0.42) rotate(-0.42)"/><circle cx="55.86" cy="81.7" r="0.63"/><path class="cls-1" d="M60.31,115.7c0-.9.56-1.17,1.26-1.18s1.27.26,1.27,1.16A1.18,1.18,0,0,1,61.55,117,1.14,1.14,0,0,1,60.31,115.7Z"/><ellipse class="cls-2" cx="63.22" cy="114.72" rx="2.34" ry="1.74" transform="translate(-0.84 0.47) rotate(-0.42)"/><ellipse class="cls-1" cx="63.51" cy="116.24" rx="1.84" ry="1.22" transform="translate(-0.85 0.47) rotate(-0.42)"/><ellipse cx="62.81" cy="115.21" rx="0.47" ry="0.38" transform="translate(-0.84 0.46) rotate(-0.42)"/><path class="cls-1" d="M40.1,107.31c0-1.07.54-1.39,1.22-1.39s1.24.31,1.25,1.37-.57,1.51-1.26,1.51S40.11,108.38,40.1,107.31Z"/><ellipse class="cls-2" cx="42.93" cy="106.15" rx="2.29" ry="2.07" transform="translate(-0.78 0.32) rotate(-0.42)"/><ellipse class="cls-1" cx="43.22" cy="107.96" rx="1.79" ry="1.44" transform="translate(-0.79 0.32) rotate(-0.42)"/><ellipse cx="42.53" cy="106.73" rx="0.46" ry="0.46" transform="translate(-0.78 0.32) rotate(-0.42)"/><path class="cls-1" d="M25.71,76.21c0-1.46.73-1.9,1.65-1.91S29,74.72,29,76.18s-.77,2.07-1.69,2.08S25.72,77.67,25.71,76.21Z"/><ellipse class="cls-2" cx="29.53" cy="74.62" rx="3.09" ry="2.84" transform="translate(-0.55 0.22) rotate(-0.42)"/><ellipse class="cls-1" cx="29.93" cy="77.09" rx="2.42" ry="1.98" transform="translate(-0.57 0.22) rotate(-0.42)"/><circle cx="29" cy="75.41" r="0.63"/><path class="cls-1" d="M26.49,103.38a1.85,1.85,0,0,1,2.05-2.13,1.86,1.86,0,0,1,2.08,2.1,2,2,0,0,1-2.1,2.31C27.38,105.67,26.5,105,26.49,103.38Z"/><ellipse class="cls-2" cx="31.22" cy="101.61" rx="3.82" ry="3.15" transform="translate(-0.75 0.23) rotate(-0.42)"/><ellipse class="cls-1" cx="31.71" cy="104.36" rx="2.99" ry="2.2" transform="translate(-0.77 0.24) rotate(-0.42)"/><ellipse cx="30.56" cy="102.49" rx="0.77" ry="0.7" transform="translate(-0.75 0.23) rotate(-0.42)"/><path class="cls-1" d="M81.15,96.3c0-1.06.54-1.38,1.22-1.39s1.24.31,1.25,1.37S83,97.79,82.36,97.8,81.15,97.37,81.15,96.3Z"/><ellipse class="cls-2" cx="83.98" cy="95.14" rx="2.29" ry="2.07" transform="translate(-0.7 0.62) rotate(-0.42)"/><ellipse class="cls-1" cx="84.27" cy="96.95" rx="1.79" ry="1.44" transform="translate(-0.71 0.62) rotate(-0.42)"/><ellipse cx="83.58" cy="95.72" rx="0.46" ry="0.46" transform="translate(-0.7 0.62) rotate(-0.42)"/><path class="cls-1" d="M76.14,108.05c0-2.07,1.1-2.7,2.47-2.71s2.5.6,2.51,2.67S80,111,78.59,111,76.16,110.12,76.14,108.05Z"/><ellipse class="cls-2" cx="81.85" cy="105.79" rx="4.61" ry="4.02" transform="translate(-0.77 0.6) rotate(-0.42)"/><ellipse class="cls-1" cx="82.44" cy="109.3" rx="3.61" ry="2.81" transform="translate(-0.8 0.61) rotate(-0.42)"/><ellipse cx="81.05" cy="106.92" rx="0.93" ry="0.89" transform="translate(-0.78 0.6) rotate(-0.42)"/><path class="cls-1" d="M215.8,113.55c0,1.47-.75,1.9-1.67,1.9s-1.67-.43-1.67-1.9.79-2.06,1.71-2.06S215.8,112.09,215.8,113.55Z"/><ellipse class="cls-2" cx="211.96" cy="115.12" rx="3.09" ry="2.84"/><ellipse class="cls-1" cx="211.59" cy="112.64" rx="2.42" ry="1.98"/><circle cx="212.51" cy="114.33" r="0.63"/><path class="cls-1" d="M184.36,116c0,1.54-.83,2-1.85,2s-1.85-.46-1.85-2,.88-2.17,1.9-2.17S184.36,114.46,184.36,116Z"/><ellipse class="cls-2" cx="180.11" cy="117.64" rx="3.42" ry="2.98"/><ellipse class="cls-1" cx="179.69" cy="115.03" rx="2.68" ry="2.08"/><ellipse cx="180.71" cy="116.8" rx="0.69" ry="0.66"/><path class="cls-1" d="M127.57,125.15a2.07,2.07,0,1,1-4.13,0,2,2,0,0,1,2.12-2.3C126.69,122.85,127.57,123.52,127.57,125.15Z"/><ellipse class="cls-2" cx="122.82" cy="126.89" rx="3.82" ry="3.15"/><ellipse class="cls-1" cx="122.36" cy="124.13" rx="2.99" ry="2.2"/><ellipse cx="123.49" cy="126.01" rx="0.77" ry="0.7"/><path class="cls-1" d="M167.81,93.42c0,1.77-.89,2.3-2,2.3s-2-.53-2-2.3.94-2.5,2-2.5S167.81,91.65,167.81,93.42Z"/><ellipse class="cls-2" cx="163.24" cy="95.32" rx="3.68" ry="3.44"/><ellipse class="cls-1" cx="162.79" cy="92.31" rx="2.88" ry="2.4"/><ellipse cx="163.88" cy="94.36" rx="0.75" ry="0.76"/><path class="cls-1" d="M150.62,103.85a1.28,1.28,0,1,1-2.55,0,1.25,1.25,0,0,1,1.31-1.42C150.08,102.43,150.62,102.84,150.62,103.85Z"/><ellipse class="cls-2" cx="147.69" cy="104.93" rx="2.36" ry="1.95"/><ellipse class="cls-1" cx="147.4" cy="103.22" rx="1.85" ry="1.36"/><ellipse cx="148.1" cy="104.38" rx="0.48" ry="0.43"/><path class="cls-1" d="M172.26,108.91c0,2.07-1.12,2.69-2.49,2.69s-2.49-.62-2.49-2.69,1.17-2.92,2.55-2.92S172.26,106.84,172.26,108.91Z"/><ellipse class="cls-2" cx="166.53" cy="111.13" rx="4.61" ry="4.02"/><ellipse class="cls-1" cx="165.97" cy="107.61" rx="3.61" ry="2.81"/><ellipse cx="167.34" cy="110.01" rx="0.93" ry="0.89"/><path class="cls-1" d="M149.58,118.2c0,1.37-.62,1.78-1.39,1.78s-1.4-.41-1.4-1.78.66-1.94,1.43-1.94S149.58,116.83,149.58,118.2Z"/><ellipse class="cls-2" cx="146.38" cy="119.66" rx="2.58" ry="2.66"/><ellipse class="cls-1" cx="146.06" cy="117.34" rx="2.02" ry="1.86"/><ellipse cx="146.83" cy="118.92" rx="0.52" ry="0.59"/><path class="cls-1" d="M163.14,124.27c0,1.46-.74,1.9-1.66,1.9s-1.67-.44-1.67-1.9.79-2.06,1.71-2.06S163.14,122.81,163.14,124.27Z"/><ellipse class="cls-2" cx="159.31" cy="125.83" rx="3.09" ry="2.84"/><ellipse class="cls-1" cx="158.93" cy="123.35" rx="2.42" ry="1.98"/><circle cx="159.85" cy="125.04" r="0.63"/><path class="cls-1" d="M155.65,91c0,.9-.56,1.17-1.26,1.17s-1.27-.27-1.27-1.17a1.18,1.18,0,0,1,1.3-1.26A1.13,1.13,0,0,1,155.65,91Z"/><ellipse class="cls-2" cx="152.74" cy="91.97" rx="2.34" ry="1.74"/><ellipse class="cls-1" cx="152.46" cy="90.45" rx="1.84" ry="1.22"/><ellipse cx="153.15" cy="91.49" rx="0.47" ry="0.38"/><path class="cls-1" d="M175.8,99.55c0,1.07-.55,1.38-1.23,1.38s-1.24-.31-1.24-1.38.59-1.5,1.27-1.5S175.8,98.49,175.8,99.55Z"/><ellipse class="cls-2" cx="172.96" cy="100.69" rx="2.29" ry="2.07"/><ellipse class="cls-1" cx="172.68" cy="98.88" rx="1.79" ry="1.44"/><ellipse cx="173.36" cy="100.11" rx="0.46" ry="0.46"/><path class="cls-1" d="M190,130.76c0,1.46-.74,1.9-1.66,1.9s-1.67-.44-1.67-1.9.79-2.06,1.71-2.06S190,129.3,190,130.76Z"/><ellipse class="cls-2" cx="186.13" cy="132.32" rx="3.09" ry="2.84"/><ellipse class="cls-1" cx="185.75" cy="129.84" rx="2.42" ry="1.98"/><circle cx="186.67" cy="131.53" r="0.63"/><path class="cls-1" d="M189.38,103.58a2.06,2.06,0,1,1-4.12,0,2,2,0,0,1,2.11-2.29C188.51,101.29,189.38,102,189.38,103.58Z"/><ellipse class="cls-2" cx="184.64" cy="105.32" rx="3.82" ry="3.15"/><ellipse class="cls-1" cx="184.17" cy="102.56" rx="2.99" ry="2.2"/><ellipse cx="185.31" cy="104.44" rx="0.77" ry="0.7"/><path class="cls-1" d="M134.68,110.26c0,1.06-.56,1.38-1.24,1.38s-1.24-.32-1.24-1.38.59-1.51,1.27-1.51S134.68,109.19,134.68,110.26Z"/><ellipse class="cls-2" cx="131.83" cy="111.4" rx="2.29" ry="2.07"/><ellipse class="cls-1" cx="131.56" cy="109.59" rx="1.79" ry="1.44"/><ellipse cx="132.24" cy="110.82" rx="0.46" ry="0.46"/><path class="cls-1" d="M139.77,98.55c0,2.07-1.12,2.68-2.49,2.68s-2.5-.61-2.5-2.68,1.18-2.93,2.56-2.93S139.77,96.47,139.77,98.55Z"/><ellipse class="cls-2" cx="134.04" cy="100.76" rx="4.61" ry="4.02"/><ellipse class="cls-1" cx="133.48" cy="97.25" rx="3.61" ry="2.81"/><ellipse cx="134.85" cy="99.64" rx="0.93" ry="0.89"/><path class="cls-1" d="M63.09,123.54c0-1.46.73-1.9,1.65-1.91s1.67.42,1.68,1.89-.77,2.07-1.69,2.07S63.1,125,63.09,123.54Z"/><ellipse class="cls-2" cx="66.91" cy="121.95" rx="3.09" ry="2.84" transform="translate(-0.89 0.49) rotate(-0.42)"/><ellipse class="cls-1" cx="67.3" cy="124.43" rx="2.42" ry="1.98" transform="translate(-0.91 0.5) rotate(-0.42)"/><circle cx="66.37" cy="122.75" r="0.63"/><path class="cls-1" d="M94.51,120.87c0-1.53.81-2,1.83-2s1.85.45,1.86,2S97.34,123,96.32,123,94.52,122.41,94.51,120.87Z"/><ellipse class="cls-2" cx="98.75" cy="119.2" rx="3.42" ry="2.98" transform="translate(-0.87 0.73) rotate(-0.42)"/><ellipse class="cls-1" cx="99.18" cy="121.8" rx="2.68" ry="2.08" transform="translate(-0.89 0.73) rotate(-0.42)"/><ellipse cx="98.15" cy="120.03" rx="0.69" ry="0.66" transform="translate(-0.88 0.72) rotate(-0.42)"/><path class="cls-1" d="M151.23,111.3a2.07,2.07,0,1,1,4.13,0,2,2,0,0,1-2.1,2.31C152.12,113.59,151.24,112.92,151.23,111.3Z"/><ellipse class="cls-2" cx="155.96" cy="109.52" rx="3.82" ry="3.15" transform="translate(-0.8 1.15) rotate(-0.42)"/><ellipse class="cls-1" cx="156.45" cy="112.28" rx="2.99" ry="2.2" transform="translate(-0.82 1.15) rotate(-0.42)"/><ellipse cx="155.3" cy="110.41" rx="0.77" ry="0.7" transform="translate(-0.81 1.14) rotate(-0.42)"/><path class="cls-1" d="M111.22,143.32c0-1.77.87-2.3,2-2.31s2,.51,2,2.28-.93,2.51-2,2.52S111.23,145.09,111.22,143.32Z"/><ellipse class="cls-2" cx="115.78" cy="141.39" rx="3.68" ry="3.44" transform="translate(-1.03 0.85) rotate(-0.42)"/><ellipse class="cls-1" cx="116.25" cy="144.4" rx="2.88" ry="2.4" transform="translate(-1.06 0.86) rotate(-0.42)"/><ellipse cx="115.14" cy="142.36" rx="0.75" ry="0.76" transform="translate(-1.04 0.85) rotate(-0.42)"/><path class="cls-1" d="M128.33,132.77a1.28,1.28,0,1,1,2.55,0,1.25,1.25,0,0,1-1.29,1.43C128.88,134.18,128.34,133.77,128.33,132.77Z"/><ellipse class="cls-2" cx="131.26" cy="131.67" rx="2.36" ry="1.95" transform="translate(-0.96 0.97) rotate(-0.42)"/><ellipse class="cls-1" cx="131.56" cy="133.38" rx="1.85" ry="1.36" transform="translate(-0.98 0.97) rotate(-0.42)"/><ellipse cx="130.85" cy="132.22" rx="0.48" ry="0.43" transform="translate(-0.97 0.96) rotate(-0.42)"/><path class="cls-1" d="M106.66,127.86c0-2.07,1.09-2.69,2.47-2.7s2.5.6,2.51,2.67-1.16,2.93-2.53,2.94S106.67,129.94,106.66,127.86Z"/><ellipse class="cls-2" cx="112.37" cy="125.61" rx="4.61" ry="4.02" transform="translate(-0.92 0.83) rotate(-0.42)"/><ellipse class="cls-1" cx="112.96" cy="129.12" rx="3.61" ry="2.81" transform="translate(-0.94 0.83) rotate(-0.42)"/><ellipse cx="111.57" cy="126.73" rx="0.93" ry="0.89" transform="translate(-0.93 0.82) rotate(-0.42)"/><path class="cls-1" d="M129.27,118.41c0-1.37.61-1.78,1.38-1.79s1.4.4,1.41,1.77-.65,1.94-1.42,2S129.28,119.78,129.27,118.41Z"/><ellipse class="cls-2" cx="132.46" cy="116.92" rx="2.58" ry="2.66" transform="translate(-0.85 0.98) rotate(-0.42)"/><ellipse class="cls-1" cx="132.79" cy="119.25" rx="2.02" ry="1.86" transform="translate(-0.87 0.98) rotate(-0.42)"/><ellipse cx="132.02" cy="117.67" rx="0.52" ry="0.59" transform="translate(-0.86 0.97) rotate(-0.42)"/><path class="cls-1" d="M115.66,112.44c0-1.46.73-1.9,1.66-1.91s1.67.42,1.68,1.89-.78,2.07-1.7,2.07S115.67,113.9,115.66,112.44Z"/><ellipse class="cls-2" cx="119.49" cy="110.85" rx="3.09" ry="2.84" transform="translate(-0.81 0.88) rotate(-0.42)"/><ellipse class="cls-1" cx="119.88" cy="113.33" rx="2.42" ry="1.98" transform="translate(-0.83 0.88) rotate(-0.42)"/><circle cx="118.95" cy="111.65" r="0.63"/><path class="cls-1" d="M123.4,145.64c0-.9.55-1.17,1.25-1.18s1.27.26,1.28,1.16a1.19,1.19,0,0,1-1.29,1.28A1.13,1.13,0,0,1,123.4,145.64Z"/><ellipse class="cls-2" cx="126.3" cy="144.66" rx="2.34" ry="1.74" transform="translate(-1.06 0.93) rotate(-0.42)"/><ellipse class="cls-1" cx="126.6" cy="146.18" rx="1.84" ry="1.22" transform="translate(-1.07 0.93) rotate(-0.42)"/><ellipse cx="125.89" cy="145.15" rx="0.47" ry="0.38" transform="translate(-1.06 0.93) rotate(-0.42)"/><path class="cls-1" d="M103.18,137.25c0-1.07.55-1.39,1.23-1.39s1.24.31,1.24,1.37-.57,1.51-1.25,1.51S103.19,138.32,103.18,137.25Z"/><ellipse class="cls-2" cx="106.02" cy="136.09" rx="2.29" ry="2.07" transform="translate(-1 0.78) rotate(-0.42)"/><ellipse class="cls-1" cx="106.31" cy="137.9" rx="1.79" ry="1.44" transform="translate(-1.01 0.78) rotate(-0.42)"/><ellipse cx="105.62" cy="136.67" rx="0.46" ry="0.46" transform="translate(-1 0.78) rotate(-0.42)"/><path class="cls-1" d="M88.79,106.15c0-1.46.74-1.9,1.66-1.91s1.67.42,1.68,1.88-.77,2.07-1.7,2.08S88.8,107.61,88.79,106.15Z"/><ellipse class="cls-2" cx="92.62" cy="104.56" rx="3.09" ry="2.84" transform="translate(-0.77 0.68) rotate(-0.42)"/><ellipse class="cls-1" cx="93.01" cy="107.03" rx="2.42" ry="1.98" transform="translate(-0.78 0.69) rotate(-0.42)"/><circle cx="92.08" cy="105.35" r="0.63"/><path class="cls-1" d="M89.58,133.32a2.06,2.06,0,1,1,4.12,0,2,2,0,0,1-2.1,2.31C90.46,135.61,89.59,135,89.58,133.32Z"/><ellipse class="cls-2" cx="94.31" cy="131.55" rx="3.82" ry="3.15" transform="translate(-0.96 0.7) rotate(-0.42)"/><ellipse class="cls-1" cx="94.79" cy="134.3" rx="2.99" ry="2.2" transform="translate(-0.98 0.7) rotate(-0.42)"/><ellipse cx="93.64" cy="132.43" rx="0.77" ry="0.7" transform="translate(-0.97 0.69) rotate(-0.42)"/><path class="cls-1" d="M144.23,126.24c0-1.06.54-1.38,1.23-1.39s1.23.31,1.24,1.37-.57,1.51-1.25,1.52S144.24,127.31,144.23,126.24Z"/><ellipse class="cls-2" cx="147.06" cy="125.08" rx="2.29" ry="2.07" transform="translate(-0.91 1.08) rotate(-0.42)"/><ellipse class="cls-1" cx="147.36" cy="126.89" rx="1.79" ry="1.44" transform="translate(-0.93 1.09) rotate(-0.42)"/><ellipse cx="146.67" cy="125.66" rx="0.46" ry="0.46" transform="translate(-0.92 1.08) rotate(-0.42)"/><path class="cls-1" d="M139.23,138c0-2.07,1.09-2.7,2.47-2.71s2.49.6,2.51,2.67-1.16,2.94-2.53,3S139.24,140.06,139.23,138Z"/><ellipse class="cls-2" cx="144.94" cy="135.73" rx="4.61" ry="4.02" transform="translate(-0.99 1.07) rotate(-0.42)"/><ellipse class="cls-1" cx="145.53" cy="139.24" rx="3.61" ry="2.81" transform="translate(-1.02 1.07) rotate(-0.42)"/><ellipse cx="144.14" cy="136.86" rx="0.93" ry="0.89" transform="translate(-1 1.06) rotate(-0.42)"/><path class="cls-1" d="M228.12,64.14c.07,1.47-.65,1.94-1.57,2s-1.69-.35-1.76-1.81.68-2.1,1.6-2.15S228.05,62.68,228.12,64.14Z"/><ellipse class="cls-2" cx="224.37" cy="65.9" rx="3.09" ry="2.84" transform="translate(-3 11.25) rotate(-2.85)"/><ellipse class="cls-1" cx="223.87" cy="63.44" rx="2.42" ry="1.98" transform="translate(-2.88 11.23) rotate(-2.85)"/><circle cx="224.87" cy="65.08" r="0.63"/><path class="cls-1" d="M196.84,68.15c.08,1.53-.73,2-1.75,2.08s-1.86-.36-1.94-1.9.76-2.21,1.78-2.26S196.76,66.61,196.84,68.15Z"/><ellipse class="cls-2" cx="192.68" cy="70" rx="3.42" ry="2.98" transform="translate(-3.25 9.68) rotate(-2.85)"/><ellipse class="cls-1" cx="192.13" cy="67.41" rx="2.68" ry="2.08" transform="translate(-3.12 9.65) rotate(-2.85)"/><ellipse cx="193.24" cy="69.14" rx="0.69" ry="0.66" transform="translate(-3.2 9.71) rotate(-2.85)"/><path class="cls-1" d="M140.57,80.12a2.06,2.06,0,1,1-4.12.21,2,2,0,0,1,2-2.4C139.59,77.87,140.49,78.5,140.57,80.12Z"/><ellipse class="cls-2" cx="135.92" cy="82.09" rx="3.82" ry="3.15" transform="translate(-3.92 6.87) rotate(-2.85)"/><ellipse class="cls-1" cx="135.32" cy="79.36" rx="2.99" ry="2.2" transform="translate(-3.78 6.84) rotate(-2.85)"/><ellipse cx="136.55" cy="81.18" rx="0.77" ry="0.7" transform="matrix(1, -0.05, 0.05, 1, -3.87, 6.9)"/><path class="cls-1" d="M179.19,46.43c.09,1.77-.77,2.34-1.87,2.39s-2-.43-2.1-2.2.81-2.54,1.91-2.6S179.1,44.66,179.19,46.43Z"/><ellipse class="cls-2" cx="174.72" cy="48.55" rx="3.68" ry="3.44" transform="translate(-2.2 8.76) rotate(-2.85)"/><ellipse class="cls-1" cx="174.12" cy="45.57" rx="2.88" ry="2.4" transform="translate(-2.05 8.73) rotate(-2.85)"/><ellipse cx="175.31" cy="47.56" rx="0.75" ry="0.76" transform="translate(-2.15 8.79) rotate(-2.85)"/><path class="cls-1" d="M162.54,57.7a1.28,1.28,0,1,1-2.55.12,1.26,1.26,0,0,1,1.24-1.48C161.93,56.31,162.49,56.69,162.54,57.7Z"/><ellipse class="cls-2" cx="159.66" cy="58.92" rx="2.36" ry="1.95" transform="translate(-2.74 8.02) rotate(-2.85)"/><ellipse class="cls-1" cx="159.29" cy="57.23" rx="1.85" ry="1.36" transform="translate(-2.65 8) rotate(-2.85)"/><ellipse cx="160.05" cy="58.35" rx="0.48" ry="0.43" transform="translate(-2.71 8.04) rotate(-2.85)"/><path class="cls-1" d="M184.4,61.68c.11,2.07-1,2.74-2.35,2.81s-2.52-.5-2.62-2.57,1-3,2.4-3S184.3,59.61,184.4,61.68Z"/><ellipse class="cls-2" cx="178.79" cy="64.17" rx="4.61" ry="4.02" transform="translate(-2.97 8.98) rotate(-2.85)"/><ellipse class="cls-1" cx="178.06" cy="60.69" rx="3.61" ry="2.81" transform="translate(-2.8 8.94) rotate(-2.85)"/><ellipse cx="179.54" cy="63.01" rx="0.93" ry="0.89" transform="translate(-2.91 9.02) rotate(-2.85)"/><path class="cls-1" d="M162.21,72.08c.07,1.37-.53,1.81-1.3,1.85s-1.41-.34-1.48-1.71.56-2,1.33-2S162.15,70.71,162.21,72.08Z"/><ellipse class="cls-2" cx="159.09" cy="73.7" rx="2.58" ry="2.66" transform="translate(-3.47 8.01) rotate(-2.85)"/><ellipse class="cls-1" cx="158.66" cy="71.39" rx="2.02" ry="1.86" transform="translate(-3.36 7.99) rotate(-2.85)"/><ellipse cx="159.5" cy="72.94" rx="0.52" ry="0.59" transform="translate(-3.43 8.03) rotate(-2.85)"/><path class="cls-1" d="M176.06,77.47c.08,1.46-.65,1.93-1.57,2s-1.69-.36-1.76-1.82.69-2.1,1.61-2.14S176,76,176.06,77.47Z"/><ellipse class="cls-2" cx="172.31" cy="79.22" rx="3.09" ry="2.84" transform="translate(-3.73 8.68) rotate(-2.85)"/><ellipse class="cls-1" cx="171.81" cy="76.76" rx="2.42" ry="1.98" transform="translate(-3.61 8.65) rotate(-2.85)"/><circle cx="172.81" cy="78.4" r="0.63"/><path class="cls-1" d="M166.93,44.63c0,.89-.51,1.19-1.21,1.22s-1.28-.2-1.32-1.1a1.18,1.18,0,0,1,1.23-1.33A1.14,1.14,0,0,1,166.93,44.63Z"/><ellipse class="cls-2" cx="164.07" cy="45.73" rx="2.34" ry="1.74" transform="translate(-2.07 8.23) rotate(-2.85)"/><ellipse class="cls-1" cx="163.71" cy="44.22" rx="1.84" ry="1.22" transform="matrix(1, -0.05, 0.05, 1, -2, 8.21)"/><ellipse cx="164.45" cy="45.23" rx="0.47" ry="0.38" transform="translate(-2.05 8.24) rotate(-2.85)"/><path class="cls-1" d="M187.48,52.15c.05,1.06-.49,1.41-1.17,1.44s-1.25-.25-1.3-1.32.51-1.53,1.19-1.56S187.42,51.09,187.48,52.15Z"/><ellipse class="cls-2" cx="184.69" cy="53.43" rx="2.29" ry="2.07" transform="translate(-2.43 9.26) rotate(-2.85)"/><ellipse class="cls-1" cx="184.33" cy="51.64" rx="1.79" ry="1.44" transform="translate(-2.34 9.24) rotate(-2.85)"/><ellipse cx="185.07" cy="52.83" rx="0.46" ry="0.46" transform="translate(-2.4 9.28) rotate(-2.85)"/><path class="cls-1" d="M203.17,82.61c.08,1.46-.65,1.94-1.57,2s-1.68-.35-1.76-1.81.69-2.1,1.61-2.15S203.1,81.15,203.17,82.61Z"/><ellipse class="cls-2" cx="199.42" cy="84.37" rx="3.09" ry="2.84" transform="translate(-3.95 10.03) rotate(-2.85)"/><ellipse class="cls-1" cx="198.92" cy="81.91" rx="2.42" ry="1.98" transform="translate(-3.83 10.01) rotate(-2.85)"/><circle cx="199.92" cy="83.55" r="0.63"/><path class="cls-1" d="M201.24,55.5a2.06,2.06,0,1,1-4.12.21,2,2,0,0,1,2-2.4C200.25,53.25,201.16,53.88,201.24,55.5Z"/><ellipse class="cls-2" cx="196.59" cy="57.47" rx="3.82" ry="3.15" transform="translate(-2.62 9.86) rotate(-2.85)"/><ellipse class="cls-1" cx="195.99" cy="54.74" rx="2.99" ry="2.2" transform="translate(-2.48 9.83) rotate(-2.85)"/><ellipse cx="197.21" cy="56.56" rx="0.77" ry="0.7" transform="translate(-2.57 9.89) rotate(-2.85)"/><path class="cls-1" d="M146.93,64.89c.06,1.07-.48,1.41-1.16,1.44s-1.25-.25-1.3-1.31.5-1.54,1.19-1.57S146.88,63.83,146.93,64.89Z"/><ellipse class="cls-2" cx="144.15" cy="66.17" rx="2.29" ry="2.07" transform="matrix(1, -0.05, 0.05, 1, -3.12, 7.26)"/><ellipse class="cls-1" cx="143.78" cy="64.38" rx="1.79" ry="1.44" transform="translate(-3.03 7.24) rotate(-2.85)"/><ellipse cx="144.52" cy="65.58" rx="0.46" ry="0.46" transform="translate(-3.09 7.28) rotate(-2.85)"/><path class="cls-1" d="M151.44,52.94c.1,2.07-1,2.74-2.36,2.81s-2.52-.49-2.62-2.56,1-3,2.4-3S151.33,50.87,151.44,52.94Z"/><ellipse class="cls-2" cx="145.82" cy="55.44" rx="4.61" ry="4.02" transform="translate(-2.58 7.33) rotate(-2.85)"/><ellipse class="cls-1" cx="145.09" cy="51.96" rx="3.61" ry="2.81" transform="translate(-2.41 7.29) rotate(-2.85)"/><ellipse cx="146.57" cy="54.28" rx="0.93" ry="0.89" transform="translate(-2.52 7.37) rotate(-2.85)"/><path class="cls-1" d="M74.41,35.82c0-1.47.73-1.91,1.65-1.91s1.67.42,1.68,1.88-.77,2.07-1.69,2.08S74.42,37.28,74.41,35.82Z"/><ellipse class="cls-2" cx="78.23" cy="34.22" rx="3.09" ry="2.84" transform="translate(-0.25 0.58) rotate(-0.42)"/><ellipse class="cls-1" cx="78.63" cy="36.7" rx="2.42" ry="1.98" transform="translate(-0.27 0.58) rotate(-0.42)"/><circle cx="77.7" cy="35.02" r="0.63"/><path class="cls-1" d="M105.83,33.15c0-1.54.81-2,1.83-2s1.85.44,1.87,2-.86,2.18-1.88,2.18S105.84,34.68,105.83,33.15Z"/><ellipse class="cls-2" cx="110.07" cy="31.47" rx="3.42" ry="2.98" transform="translate(-0.23 0.81) rotate(-0.42)"/><ellipse class="cls-1" cx="110.5" cy="34.08" rx="2.68" ry="2.08" transform="translate(-0.25 0.81) rotate(-0.42)"/><ellipse cx="109.47" cy="32.31" rx="0.69" ry="0.66" transform="translate(-0.23 0.8) rotate(-0.42)"/><path class="cls-1" d="M162.55,23.57a2.07,2.07,0,1,1,4.13,0,2,2,0,0,1-2.1,2.31C163.44,25.86,162.57,25.2,162.55,23.57Z"/><ellipse class="cls-2" cx="167.29" cy="21.8" rx="3.82" ry="3.15" transform="translate(-0.16 1.23) rotate(-0.42)"/><ellipse class="cls-1" cx="167.77" cy="24.55" rx="2.99" ry="2.2" transform="translate(-0.18 1.23) rotate(-0.42)"/><ellipse cx="166.62" cy="22.68" rx="0.77" ry="0.7" transform="translate(-0.16 1.22) rotate(-0.42)"/><path class="cls-1" d="M122.54,55.6c0-1.78.88-2.31,2-2.32s2,.51,2,2.29-.92,2.51-2,2.51S122.55,57.37,122.54,55.6Z"/><ellipse class="cls-2" cx="127.1" cy="53.67" rx="3.68" ry="3.44" transform="translate(-0.39 0.93) rotate(-0.42)"/><ellipse class="cls-1" cx="127.57" cy="56.67" rx="2.88" ry="2.4" transform="translate(-0.41 0.94) rotate(-0.42)"/><ellipse cx="126.46" cy="54.63" rx="0.75" ry="0.76" transform="translate(-0.4 0.93) rotate(-0.42)"/><path class="cls-1" d="M139.66,45a1.28,1.28,0,1,1,2.55,0,1.26,1.26,0,0,1-1.3,1.43C140.21,46.46,139.66,46.05,139.66,45Z"/><ellipse class="cls-2" cx="142.58" cy="43.94" rx="2.36" ry="1.95" transform="translate(-0.32 1.05) rotate(-0.42)"/><ellipse class="cls-1" cx="142.88" cy="45.65" rx="1.85" ry="1.36" transform="translate(-0.33 1.05) rotate(-0.42)"/><ellipse cx="142.17" cy="44.49" rx="0.48" ry="0.43" transform="translate(-0.32 1.04) rotate(-0.42)"/><path class="cls-1" d="M118,40.14c0-2.07,1.1-2.7,2.47-2.71S123,38,123,40.1,121.81,43,120.43,43,118,42.21,118,40.14Z"/><ellipse class="cls-2" cx="123.7" cy="37.88" rx="4.61" ry="4.02" transform="translate(-0.27 0.91) rotate(-0.42)"/><ellipse class="cls-1" cx="124.28" cy="41.39" rx="3.61" ry="2.81" transform="translate(-0.3 0.91) rotate(-0.42)"/><ellipse cx="122.89" cy="39.01" rx="0.93" ry="0.89" transform="translate(-0.28 0.9) rotate(-0.42)"/><path class="cls-1" d="M140.59,30.69c0-1.37.61-1.79,1.38-1.79s1.4.39,1.41,1.77-.65,1.94-1.41,1.94S140.6,32.06,140.59,30.69Z"/><ellipse class="cls-2" cx="143.79" cy="29.2" rx="2.58" ry="2.66" transform="translate(-0.21 1.06) rotate(-0.42)"/><ellipse class="cls-1" cx="144.12" cy="31.52" rx="2.02" ry="1.86" transform="translate(-0.23 1.06) rotate(-0.42)"/><ellipse cx="143.34" cy="29.94" rx="0.52" ry="0.59" transform="translate(-0.22 1.05) rotate(-0.42)"/><path class="cls-1" d="M127,24.71c0-1.46.74-1.9,1.66-1.9s1.67.42,1.68,1.88-.77,2.07-1.69,2.08S127,26.18,127,24.71Z"/><ellipse class="cls-2" cx="130.81" cy="23.12" rx="3.09" ry="2.84" transform="translate(-0.17 0.96) rotate(-0.42)"/><ellipse class="cls-1" cx="131.2" cy="25.6" rx="2.42" ry="1.98" transform="translate(-0.18 0.96) rotate(-0.42)"/><circle cx="130.27" cy="23.92" r="0.63"/><path class="cls-1" d="M134.72,57.91c0-.89.56-1.17,1.26-1.17s1.26.26,1.27,1.16A1.18,1.18,0,0,1,136,59.17,1.13,1.13,0,0,1,134.72,57.91Z"/><ellipse class="cls-2" cx="137.62" cy="56.93" rx="2.34" ry="1.74" transform="translate(-0.41 1.01) rotate(-0.42)"/><ellipse class="cls-1" cx="137.92" cy="58.45" rx="1.84" ry="1.22" transform="translate(-0.43 1.01) rotate(-0.42)"/><ellipse cx="137.22" cy="57.42" rx="0.47" ry="0.38" transform="translate(-0.42 1.01) rotate(-0.42)"/><path class="cls-1" d="M114.51,49.52c0-1.06.54-1.38,1.22-1.39s1.24.31,1.25,1.38S116.4,51,115.72,51,114.51,50.59,114.51,49.52Z"/><ellipse class="cls-2" cx="117.34" cy="48.36" rx="2.29" ry="2.07" transform="translate(-0.35 0.86) rotate(-0.42)"/><ellipse class="cls-1" cx="117.63" cy="50.17" rx="1.79" ry="1.44" transform="translate(-0.37 0.86) rotate(-0.42)"/><ellipse cx="116.94" cy="48.94" rx="0.46" ry="0.46" transform="translate(-0.36 0.86) rotate(-0.42)"/><path class="cls-1" d="M100.12,18.42c0-1.46.73-1.9,1.65-1.91s1.67.43,1.68,1.89-.77,2.07-1.69,2.07S100.13,19.88,100.12,18.42Z"/><ellipse class="cls-2" cx="103.94" cy="16.83" rx="3.09" ry="2.84" transform="translate(-0.12 0.76) rotate(-0.42)"/><ellipse class="cls-1" cx="104.33" cy="19.31" rx="2.42" ry="1.98" transform="translate(-0.14 0.77) rotate(-0.42)"/><circle cx="103.4" cy="17.63" r="0.63"/><path class="cls-1" d="M100.9,45.59a2.07,2.07,0,1,1,4.13,0,2,2,0,0,1-2.1,2.31C101.79,47.88,100.91,47.22,100.9,45.59Z"/><ellipse class="cls-2" cx="105.63" cy="43.82" rx="3.82" ry="3.15" transform="translate(-0.32 0.78) rotate(-0.42)"/><ellipse class="cls-1" cx="106.12" cy="46.58" rx="2.99" ry="2.2" transform="translate(-0.34 0.78) rotate(-0.42)"/><ellipse cx="104.97" cy="44.71" rx="0.77" ry="0.7" transform="matrix(1, -0.01, 0.01, 1, -0.33, 0.77)"/><path class="cls-1" d="M155.55,38.52c0-1.07.55-1.39,1.23-1.4s1.24.31,1.25,1.38S157.45,40,156.77,40,155.56,39.58,155.55,38.52Z"/><ellipse class="cls-2" cx="158.39" cy="37.36" rx="2.29" ry="2.07" transform="translate(-0.27 1.16) rotate(-0.42)"/><ellipse class="cls-1" cx="158.68" cy="39.16" rx="1.79" ry="1.44" transform="matrix(1, -0.01, 0.01, 1, -0.28, 1.17)"/><ellipse cx="157.99" cy="37.94" rx="0.46" ry="0.46" transform="translate(-0.27 1.16) rotate(-0.42)"/><path class="cls-1" d="M150.55,50.26c0-2.07,1.09-2.69,2.47-2.7s2.5.6,2.51,2.67-1.15,2.93-2.53,2.94S150.56,52.34,150.55,50.26Z"/><ellipse class="cls-2" cx="156.26" cy="48.01" rx="4.61" ry="4.02" transform="translate(-0.35 1.15) rotate(-0.42)"/><ellipse class="cls-1" cx="156.85" cy="51.52" rx="3.61" ry="2.81" transform="translate(-0.37 1.15) rotate(-0.42)"/><ellipse cx="155.46" cy="49.14" rx="0.93" ry="0.89" transform="translate(-0.36 1.14) rotate(-0.42)"/><path class="cls-1" d="M263.88,24.32c0,1.46-.75,1.9-1.67,1.9s-1.67-.44-1.67-1.9.79-2.06,1.71-2.06S263.88,22.86,263.88,24.32Z"/><ellipse class="cls-2" cx="260.04" cy="25.88" rx="3.09" ry="2.84"/><ellipse class="cls-1" cx="259.66" cy="23.4" rx="2.42" ry="1.98"/><circle cx="260.58" cy="25.09" r="0.63"/><path class="cls-1" d="M232.44,26.76c0,1.54-.83,2-1.85,2s-1.85-.45-1.85-2,.87-2.17,1.89-2.17S232.44,25.22,232.44,26.76Z"/><ellipse class="cls-2" cx="228.18" cy="28.4" rx="3.42" ry="2.98"/><ellipse class="cls-1" cx="227.77" cy="25.79" rx="2.68" ry="2.08"/><ellipse cx="228.78" cy="27.57" rx="0.69" ry="0.66"/><path class="cls-1" d="M175.64,35.92a2.06,2.06,0,1,1-4.12,0,2,2,0,0,1,2.11-2.3C174.77,33.62,175.64,34.29,175.64,35.92Z"/><ellipse class="cls-2" cx="170.9" cy="37.66" rx="3.82" ry="3.15"/><ellipse class="cls-1" cx="170.43" cy="34.9" rx="2.99" ry="2.2"/><ellipse cx="171.57" cy="36.77" rx="0.77" ry="0.7"/><path class="cls-1" d="M215.89,4.19c0,1.77-.89,2.3-2,2.3s-2-.53-2-2.3.94-2.51,2-2.51S215.89,2.41,215.89,4.19Z"/><ellipse class="cls-2" cx="211.31" cy="6.08" rx="3.68" ry="3.44"/><ellipse class="cls-1" cx="210.87" cy="3.07" rx="2.88" ry="2.4"/><ellipse cx="211.96" cy="5.12" rx="0.75" ry="0.76"/><path class="cls-1" d="M198.7,14.61a1.28,1.28,0,1,1-2.55,0,1.25,1.25,0,0,1,1.3-1.42C198.16,13.19,198.7,13.61,198.7,14.61Z"/><ellipse class="cls-2" cx="195.76" cy="15.69" rx="2.36" ry="1.95"/><ellipse class="cls-1" cx="195.48" cy="13.98" rx="1.85" ry="1.36"/><ellipse cx="196.18" cy="15.15" rx="0.48" ry="0.43"/><path class="cls-1" d="M220.34,19.68c0,2.07-1.12,2.69-2.5,2.69s-2.49-.62-2.49-2.69,1.18-2.93,2.56-2.93S220.34,17.61,220.34,19.68Z"/><ellipse class="cls-2" cx="214.61" cy="21.89" rx="4.61" ry="4.02"/><ellipse class="cls-1" cx="214.04" cy="18.38" rx="3.61" ry="2.81"/><ellipse cx="215.41" cy="20.77" rx="0.93" ry="0.89"/><path class="cls-1" d="M197.66,29c0,1.37-.63,1.78-1.4,1.78s-1.39-.41-1.39-1.78S195.53,27,196.3,27,197.66,27.59,197.66,29Z"/><ellipse class="cls-2" cx="194.45" cy="30.43" rx="2.58" ry="2.66"/><ellipse class="cls-1" cx="194.14" cy="28.1" rx="2.02" ry="1.86"/><ellipse cx="194.9" cy="29.69" rx="0.52" ry="0.59"/><path class="cls-1" d="M211.22,35c0,1.47-.75,1.9-1.67,1.9s-1.67-.43-1.67-1.9.79-2.06,1.71-2.06S211.22,33.57,211.22,35Z"/><ellipse class="cls-2" cx="207.38" cy="36.6" rx="3.09" ry="2.84"/><ellipse class="cls-1" cx="207.01" cy="34.12" rx="2.42" ry="1.98"/><circle cx="207.93" cy="35.81" r="0.63"/><path class="cls-1" d="M203.73,1.78c0,.9-.57,1.17-1.27,1.17s-1.26-.27-1.26-1.17A1.18,1.18,0,0,1,202.49.51,1.14,1.14,0,0,1,203.73,1.78Z"/><ellipse class="cls-2" cx="200.82" cy="2.74" rx="2.34" ry="1.74"/><ellipse class="cls-1" cx="200.53" cy="1.22" rx="1.84" ry="1.22"/><ellipse cx="201.23" cy="2.25" rx="0.47" ry="0.38"/><path class="cls-1" d="M223.88,10.32c0,1.06-.55,1.38-1.24,1.38s-1.23-.32-1.23-1.38.58-1.51,1.26-1.51S223.88,9.25,223.88,10.32Z"/><ellipse class="cls-2" cx="221.04" cy="11.46" rx="2.29" ry="2.07"/><ellipse class="cls-1" cx="220.76" cy="9.65" rx="1.79" ry="1.44"/><ellipse cx="221.44" cy="10.88" rx="0.46" ry="0.46"/><path class="cls-1" d="M238,41.52c0,1.47-.75,1.9-1.67,1.9s-1.66-.43-1.66-1.9.78-2.06,1.7-2.06S238,40.06,238,41.52Z"/><ellipse class="cls-2" cx="234.2" cy="43.09" rx="3.09" ry="2.84"/><ellipse class="cls-1" cx="233.83" cy="40.61" rx="2.42" ry="1.98"/><circle cx="234.75" cy="42.3" r="0.63"/><path class="cls-1" d="M237.46,14.35a2.07,2.07,0,1,1-4.13,0,2,2,0,0,1,2.12-2.3C236.58,12.05,237.46,12.72,237.46,14.35Z"/><ellipse class="cls-2" cx="232.71" cy="16.09" rx="3.82" ry="3.15"/><ellipse class="cls-1" cx="232.25" cy="13.33" rx="2.99" ry="2.2"/><ellipse cx="233.38" cy="15.21" rx="0.77" ry="0.7"/><path class="cls-1" d="M182.75,21c0,1.07-.55,1.39-1.23,1.39s-1.24-.32-1.24-1.39.58-1.5,1.27-1.5S182.75,20,182.75,21Z"/><ellipse class="cls-2" cx="179.91" cy="22.16" rx="2.29" ry="2.07"/><ellipse class="cls-1" cx="179.63" cy="20.36" rx="1.79" ry="1.44"/><ellipse cx="180.31" cy="21.59" rx="0.46" ry="0.46"/><path class="cls-1" d="M187.84,9.31c0,2.07-1.11,2.69-2.49,2.69s-2.49-.62-2.49-2.69,1.18-2.92,2.55-2.92S187.84,7.24,187.84,9.31Z"/><ellipse class="cls-2" cx="182.11" cy="11.53" rx="4.61" ry="4.02"/><ellipse class="cls-1" cx="181.55" cy="8.01" rx="3.61" ry="2.81"/><ellipse cx="182.92" cy="10.41" rx="0.93" ry="0.89"/><path class="cls-1" d="M303.23,69c0-1.46.74-1.9,1.67-1.9s1.66.43,1.67,1.89-.79,2.07-1.71,2.07S303.24,70.47,303.23,69Z"/><ellipse class="cls-2" cx="307.06" cy="67.44" rx="3.09" ry="2.84" transform="matrix(1, 0, 0, 1, -0.15, 0.67)"/><ellipse class="cls-1" cx="307.44" cy="69.92" rx="2.42" ry="1.98" transform="translate(-0.15 0.67) rotate(-0.12)"/><circle cx="306.52" cy="68.23" r="0.63"/><path class="cls-1" d="M334.67,66.5c0-1.53.82-2,1.84-2s1.85.46,1.85,2-.87,2.17-1.89,2.17S334.67,68,334.67,66.5Z"/><ellipse class="cls-2" cx="338.91" cy="64.85" rx="3.42" ry="2.98" transform="matrix(1, 0, 0, 1, -0.14, 0.74)"/><ellipse class="cls-1" cx="339.34" cy="67.46" rx="2.68" ry="2.08" transform="translate(-0.15 0.74) rotate(-0.12)"/><ellipse cx="338.32" cy="65.68" rx="0.69" ry="0.66" transform="translate(-0.14 0.74) rotate(-0.12)"/><path class="cls-1" d="M391.44,57.22a2.07,2.07,0,1,1,4.13,0,2,2,0,0,1-2.11,2.3C392.32,59.52,391.44,58.85,391.44,57.22Z"/><ellipse class="cls-2" cx="396.18" cy="55.47" rx="3.82" ry="3.15" transform="translate(-0.12 0.86) rotate(-0.12)"/><ellipse class="cls-1" cx="396.65" cy="58.23" rx="2.99" ry="2.2" transform="translate(-0.13 0.86) rotate(-0.12)"/><ellipse cx="395.51" cy="56.36" rx="0.77" ry="0.7" transform="translate(-0.12 0.86) rotate(-0.12)"/><path class="cls-1" d="M351.26,89c0-1.77.89-2.3,2-2.31s2,.53,2,2.3-.93,2.5-2,2.51S351.27,90.81,351.26,89Z"/><ellipse class="cls-2" cx="355.83" cy="87.13" rx="3.68" ry="3.44" transform="translate(-0.19 0.77) rotate(-0.12)"/><ellipse class="cls-1" cx="356.29" cy="90.14" rx="2.88" ry="2.4" transform="translate(-0.2 0.77) rotate(-0.12)"/><ellipse cx="355.19" cy="88.09" rx="0.75" ry="0.76" transform="translate(-0.19 0.77) rotate(-0.12)"/><path class="cls-1" d="M368.43,78.57a1.28,1.28,0,1,1,2.55,0,1.25,1.25,0,0,1-1.3,1.42C369,80,368.43,79.58,368.43,78.57Z"/><ellipse class="cls-2" cx="371.36" cy="77.49" rx="2.36" ry="1.95" transform="translate(-0.17 0.81) rotate(-0.12)"/><ellipse class="cls-1" cx="371.65" cy="79.2" rx="1.85" ry="1.36" transform="translate(-0.17 0.81) rotate(-0.12)"/><ellipse cx="370.95" cy="78.04" rx="0.48" ry="0.43" transform="translate(-0.17 0.81) rotate(-0.12)"/><path class="cls-1" d="M346.78,73.56c0-2.07,1.11-2.69,2.49-2.7s2.49.61,2.49,2.69-1.17,2.92-2.54,2.93S346.79,75.63,346.78,73.56Z"/><ellipse class="cls-2" cx="352.51" cy="71.33" rx="4.61" ry="4.02" transform="translate(-0.15 0.77) rotate(-0.12)"/><ellipse class="cls-1" cx="353.08" cy="74.84" rx="3.61" ry="2.81" transform="translate(-0.16 0.77) rotate(-0.12)"/><ellipse cx="351.7" cy="72.45" rx="0.93" ry="0.89" transform="translate(-0.16 0.76) rotate(-0.12)"/><path class="cls-1" d="M369.44,64.22c0-1.37.62-1.78,1.39-1.78s1.39.41,1.4,1.78-.66,1.93-1.43,1.94S369.44,65.59,369.44,64.22Z"/><ellipse class="cls-2" cx="372.64" cy="62.75" rx="2.58" ry="2.66" transform="translate(-0.14 0.81) rotate(-0.12)"/><ellipse class="cls-1" cx="372.96" cy="65.08" rx="2.02" ry="1.86" transform="translate(-0.14 0.81) rotate(-0.12)"/><ellipse cx="372.19" cy="63.49" rx="0.52" ry="0.59" transform="translate(-0.14 0.81) rotate(-0.12)"/><path class="cls-1" d="M355.86,58.18c0-1.46.75-1.9,1.67-1.9s1.67.43,1.67,1.89-.78,2.07-1.7,2.07S355.87,59.64,355.86,58.18Z"/><ellipse class="cls-2" cx="359.7" cy="56.61" rx="3.09" ry="2.84" transform="translate(-0.12 0.78) rotate(-0.12)"/><ellipse class="cls-1" cx="360.08" cy="59.09" rx="2.42" ry="1.98" transform="translate(-0.13 0.78) rotate(-0.12)"/><circle cx="359.16" cy="57.4" r="0.63"/><path class="cls-1" d="M363.43,91.42c0-.9.56-1.17,1.26-1.17s1.27.27,1.27,1.16a1.18,1.18,0,0,1-1.3,1.27A1.12,1.12,0,0,1,363.43,91.42Z"/><ellipse class="cls-2" cx="366.34" cy="90.45" rx="2.34" ry="1.74" transform="translate(-0.2 0.8) rotate(-0.12)"/><ellipse class="cls-1" cx="366.63" cy="91.98" rx="1.84" ry="1.22" transform="translate(-0.2 0.8) rotate(-0.12)"/><ellipse cx="365.93" cy="90.94" rx="0.47" ry="0.38" transform="translate(-0.2 0.8) rotate(-0.12)"/><path class="cls-1" d="M343.26,82.93c0-1.07.55-1.39,1.23-1.39s1.24.31,1.24,1.38-.58,1.51-1.26,1.51S343.26,84,343.26,82.93Z"/><ellipse class="cls-2" cx="346.1" cy="81.78" rx="2.29" ry="2.07" transform="translate(-0.18 0.75) rotate(-0.12)"/><ellipse class="cls-1" cx="346.38" cy="83.59" rx="1.79" ry="1.44" transform="translate(-0.18 0.75) rotate(-0.12)"/><ellipse cx="345.7" cy="82.36" rx="0.46" ry="0.46" transform="translate(-0.18 0.75) rotate(-0.12)"/><path class="cls-1" d="M329,51.75c0-1.46.74-1.9,1.66-1.9s1.67.43,1.67,1.89-.78,2.07-1.7,2.07S329,53.21,329,51.75Z"/><ellipse class="cls-2" cx="332.86" cy="50.18" rx="3.09" ry="2.84" transform="translate(-0.11 0.72) rotate(-0.12)"/><ellipse class="cls-1" cx="333.24" cy="52.66" rx="2.42" ry="1.98" transform="translate(-0.11 0.72) rotate(-0.12)"/><circle cx="332.32" cy="50.97" r="0.63"/><path class="cls-1" d="M329.67,78.92a2.07,2.07,0,1,1,4.13,0,2,2,0,0,1-2.11,2.3C330.55,81.22,329.68,80.55,329.67,78.92Z"/><ellipse class="cls-2" cx="334.41" cy="77.18" rx="3.82" ry="3.15" transform="translate(-0.17 0.73) rotate(-0.12)"/><ellipse class="cls-1" cx="334.88" cy="79.93" rx="2.99" ry="2.2" transform="translate(-0.17 0.73) rotate(-0.12)"/><ellipse cx="333.74" cy="78.06" rx="0.77" ry="0.7" transform="matrix(1, 0, 0, 1, -0.17, 0.73)"/><path class="cls-1" d="M384.36,72.13c0-1.07.55-1.38,1.23-1.39s1.24.32,1.24,1.38-.58,1.51-1.26,1.51S384.36,73.19,384.36,72.13Z"/><ellipse class="cls-2" cx="387.2" cy="70.98" rx="2.29" ry="2.07" transform="matrix(1, 0, 0, 1, -0.15, 0.84)"/><ellipse class="cls-1" cx="387.48" cy="72.79" rx="1.79" ry="1.44" transform="translate(-0.16 0.84) rotate(-0.12)"/><ellipse cx="386.8" cy="71.56" rx="0.46" ry="0.46" transform="translate(-0.15 0.84) rotate(-0.12)"/><path class="cls-1" d="M379.3,83.85c0-2.07,1.11-2.69,2.48-2.69s2.5.61,2.5,2.68-1.17,2.93-2.55,2.93S379.3,85.92,379.3,83.85Z"/><ellipse class="cls-2" cx="385.02" cy="81.62" rx="4.61" ry="4.02" transform="translate(-0.18 0.84) rotate(-0.12)"/><ellipse class="cls-1" cx="385.59" cy="85.14" rx="3.61" ry="2.81" transform="translate(-0.18 0.84) rotate(-0.12)"/><ellipse cx="384.22" cy="82.75" rx="0.93" ry="0.89" transform="translate(-0.18 0.84) rotate(-0.12)"/><path class="cls-1" d="M455.92,58.69c0,1.46-.72,1.9-1.65,1.91s-1.67-.42-1.68-1.88.77-2.07,1.69-2.08S455.91,57.23,455.92,58.69Z"/><ellipse class="cls-2" cx="452.1" cy="60.29" rx="3.09" ry="2.84" transform="translate(-0.55 4.3) rotate(-0.55)"/><ellipse class="cls-1" cx="451.7" cy="57.81" rx="2.42" ry="1.98" transform="translate(-0.53 4.3) rotate(-0.55)"/><circle cx="452.64" cy="59.49" r="0.63"/><path class="cls-1" d="M424.51,61.43c0,1.54-.81,2-1.83,2s-1.85-.44-1.87-2,.86-2.17,1.88-2.18S424.49,59.89,424.51,61.43Z"/><ellipse class="cls-2" cx="420.27" cy="63.11" rx="3.42" ry="2.98" transform="translate(-0.58 4) rotate(-0.55)"/><ellipse class="cls-1" cx="419.83" cy="60.51" rx="2.68" ry="2.08" transform="translate(-0.56 4) rotate(-0.55)"/><ellipse cx="420.87" cy="62.27" rx="0.69" ry="0.66" transform="translate(-0.57 4.01) rotate(-0.55)"/><path class="cls-1" d="M367.81,71.13a2.07,2.07,0,1,1-4.13,0,2,2,0,0,1,2.09-2.32C366.91,68.84,367.79,69.5,367.81,71.13Z"/><ellipse class="cls-2" cx="363.08" cy="72.91" rx="3.82" ry="3.15" transform="translate(-0.68 3.46) rotate(-0.55)"/><ellipse class="cls-1" cx="362.59" cy="70.16" rx="2.99" ry="2.2" transform="translate(-0.65 3.45) rotate(-0.55)"/><ellipse cx="363.74" cy="72.02" rx="0.77" ry="0.7" transform="translate(-0.67 3.46) rotate(-0.55)"/><path class="cls-1" d="M407.75,39c0,1.77-.87,2.3-2,2.31s-2-.5-2-2.28.92-2.51,2-2.52S407.73,37.24,407.75,39Z"/><ellipse class="cls-2" cx="403.19" cy="40.95" rx="3.68" ry="3.44" transform="translate(-0.37 3.84) rotate(-0.55)"/><ellipse class="cls-1" cx="402.72" cy="37.95" rx="2.88" ry="2.4" transform="translate(-0.34 3.83) rotate(-0.55)"/><ellipse cx="403.83" cy="39.99" rx="0.75" ry="0.76" transform="matrix(1, -0.01, 0.01, 1, -0.36, 3.84)"/><path class="cls-1" d="M390.66,49.61a1.14,1.14,0,0,1-1.27,1.31c-.7,0-1.27-.28-1.28-1.29a1.25,1.25,0,0,1,1.29-1.43C390.1,48.19,390.65,48.6,390.66,49.61Z"/><ellipse class="cls-2" cx="387.73" cy="50.71" rx="2.36" ry="1.95" transform="translate(-0.46 3.69) rotate(-0.55)"/><ellipse class="cls-1" cx="387.43" cy="49.01" rx="1.85" ry="1.36" transform="translate(-0.45 3.69) rotate(-0.55)"/><ellipse cx="388.14" cy="50.16" rx="0.48" ry="0.43" transform="matrix(1, -0.01, 0.01, 1, -0.46, 3.69)"/><path class="cls-1" d="M412.34,54.46c0,2.08-1.09,2.7-2.46,2.72s-2.5-.6-2.52-2.67,1.15-2.94,2.53-2.95S412.32,52.39,412.34,54.46Z"/><ellipse class="cls-2" cx="406.63" cy="56.73" rx="4.61" ry="4.02" transform="translate(-0.52 3.87) rotate(-0.55)"/><ellipse class="cls-1" cx="406.04" cy="53.22" rx="3.61" ry="2.81" transform="translate(-0.49 3.87) rotate(-0.55)"/><ellipse cx="407.43" cy="55.6" rx="0.93" ry="0.89" transform="translate(-0.51 3.88) rotate(-0.55)"/><path class="cls-1" d="M389.75,64c0,1.38-.61,1.79-1.37,1.8S387,65.36,387,64s.64-1.94,1.4-2S389.74,62.59,389.75,64Z"/><ellipse class="cls-2" cx="386.56" cy="65.46" rx="2.58" ry="2.66" transform="translate(-0.61 3.68) rotate(-0.55)"/><ellipse class="cls-1" cx="386.23" cy="63.14" rx="2.02" ry="1.86" transform="translate(-0.58 3.68) rotate(-0.55)"/><ellipse cx="387.01" cy="64.71" rx="0.52" ry="0.59" transform="translate(-0.6 3.68) rotate(-0.55)"/><path class="cls-1" d="M403.37,69.91c0,1.46-.73,1.9-1.65,1.91s-1.67-.42-1.68-1.88.77-2.07,1.69-2.08S403.36,68.44,403.37,69.91Z"/><ellipse class="cls-2" cx="399.55" cy="71.51" rx="3.09" ry="2.84" transform="translate(-0.66 3.8) rotate(-0.55)"/><ellipse class="cls-1" cx="399.15" cy="69.03" rx="2.42" ry="1.98" transform="translate(-0.64 3.8) rotate(-0.55)"/><circle cx="400.09" cy="70.71" r="0.63"/><path class="cls-1" d="M395.57,36.72c0,.9-.56,1.17-1.26,1.18S393,37.65,393,36.75a1.18,1.18,0,0,1,1.29-1.28A1.13,1.13,0,0,1,395.57,36.72Z"/><ellipse class="cls-2" cx="392.66" cy="37.71" rx="2.34" ry="1.74" transform="matrix(1, -0.01, 0.01, 1, -0.34, 3.74)"/><ellipse class="cls-1" cx="392.36" cy="36.19" rx="1.84" ry="1.22" transform="translate(-0.33 3.73) rotate(-0.55)"/><ellipse cx="393.07" cy="37.22" rx="0.47" ry="0.38" transform="matrix(1, -0.01, 0.01, 1, -0.34, 3.74)"/><path class="cls-1" d="M415.8,45.07c0,1.06-.54,1.39-1.23,1.39s-1.23-.3-1.24-1.37.57-1.51,1.25-1.51S415.79,44,415.8,45.07Z"/><ellipse class="cls-2" cx="412.97" cy="46.24" rx="2.29" ry="2.07" transform="translate(-0.42 3.93) rotate(-0.55)"/><ellipse class="cls-1" cx="412.67" cy="44.43" rx="1.79" ry="1.44" transform="translate(-0.4 3.93) rotate(-0.55)"/><ellipse cx="413.36" cy="45.65" rx="0.46" ry="0.46" transform="translate(-0.42 3.93) rotate(-0.55)"/><path class="cls-1" d="M430.25,76.14c0,1.46-.72,1.9-1.65,1.91s-1.67-.42-1.68-1.88.77-2.07,1.69-2.08S430.24,74.68,430.25,76.14Z"/><ellipse class="cls-2" cx="426.43" cy="77.74" rx="3.09" ry="2.84" transform="translate(-0.72 4.06) rotate(-0.55)"/><ellipse class="cls-1" cx="426.03" cy="75.26" rx="2.42" ry="1.98" transform="translate(-0.7 4.06) rotate(-0.55)"/><circle cx="426.97" cy="76.94" r="0.63"/><path class="cls-1" d="M429.41,49a2.06,2.06,0,1,1-4.12,0,2,2,0,0,1,2.09-2.32C428.52,46.68,429.4,47.34,429.41,49Z"/><ellipse class="cls-2" cx="424.68" cy="50.75" rx="3.82" ry="3.15" transform="translate(-0.46 4.04) rotate(-0.55)"/><ellipse class="cls-1" cx="424.19" cy="48" rx="2.99" ry="2.2" transform="translate(-0.44 4.04) rotate(-0.55)"/><ellipse cx="425.35" cy="49.87" rx="0.77" ry="0.7" transform="matrix(1, -0.01, 0.01, 1, -0.46, 4.05)"/><path class="cls-1" d="M374.77,56.17c0,1.06-.54,1.38-1.22,1.39s-1.24-.3-1.25-1.37.57-1.51,1.25-1.52S374.76,55.1,374.77,56.17Z"/><ellipse class="cls-2" cx="371.94" cy="57.33" rx="2.29" ry="2.07" transform="translate(-0.53 3.54) rotate(-0.55)"/><ellipse class="cls-1" cx="371.65" cy="55.53" rx="1.79" ry="1.44" transform="translate(-0.51 3.54) rotate(-0.55)"/><ellipse cx="372.34" cy="56.75" rx="0.46" ry="0.46" transform="translate(-0.52 3.54) rotate(-0.55)"/><path class="cls-1" d="M379.75,44.41c0,2.07-1.09,2.7-2.46,2.71s-2.5-.59-2.52-2.67,1.15-2.93,2.53-2.94S379.73,42.34,379.75,44.41Z"/><ellipse class="cls-2" cx="374.04" cy="46.68" rx="4.61" ry="4.02" transform="translate(-0.43 3.56) rotate(-0.55)"/><ellipse class="cls-1" cx="373.45" cy="43.17" rx="3.61" ry="2.81" transform="translate(-0.39 3.55) rotate(-0.55)"/><ellipse cx="374.84" cy="45.55" rx="0.93" ry="0.89" transform="translate(-0.42 3.57) rotate(-0.55)"/><path class="cls-1" d="M240.08,39.21c0-1.47.74-1.9,1.67-1.9s1.66.43,1.67,1.89-.79,2.07-1.71,2.07S240.09,40.67,240.08,39.21Z"/><ellipse class="cls-2" cx="243.91" cy="37.64" rx="3.09" ry="2.84" transform="translate(-0.08 0.53) rotate(-0.12)"/><ellipse class="cls-1" cx="244.29" cy="40.11" rx="2.42" ry="1.98" transform="translate(-0.09 0.53) rotate(-0.12)"/><circle cx="243.37" cy="38.43" r="0.63"/><path class="cls-1" d="M271.52,36.7c0-1.54.82-2,1.84-2s1.85.45,1.85,2-.87,2.17-1.89,2.18S271.52,38.24,271.52,36.7Z"/><ellipse class="cls-2" cx="275.76" cy="35.05" rx="3.42" ry="2.98" transform="translate(-0.08 0.6) rotate(-0.12)"/><ellipse class="cls-1" cx="276.19" cy="37.65" rx="2.68" ry="2.08" transform="translate(-0.08 0.6) rotate(-0.12)"/><ellipse cx="275.17" cy="35.88" rx="0.69" ry="0.66" transform="matrix(1, 0, 0, 1, -0.08, 0.6)"/><path class="cls-1" d="M328.29,27.42a2.07,2.07,0,1,1,4.13,0,2,2,0,0,1-2.11,2.3C329.17,29.71,328.29,29.05,328.29,27.42Z"/><ellipse class="cls-2" cx="333.03" cy="25.67" rx="3.82" ry="3.15" transform="translate(-0.05 0.72) rotate(-0.12)"/><ellipse class="cls-1" cx="333.5" cy="28.43" rx="2.99" ry="2.2" transform="translate(-0.06 0.72) rotate(-0.12)"/><ellipse cx="332.36" cy="26.55" rx="0.77" ry="0.7" transform="matrix(1, 0, 0, 1, -0.06, 0.72)"/><path class="cls-1" d="M288.11,59.24c0-1.78.89-2.31,2-2.31s2,.52,2,2.3-.93,2.5-2,2.5S288.12,61,288.11,59.24Z"/><ellipse class="cls-2" cx="292.68" cy="57.33" rx="3.68" ry="3.44" transform="translate(-0.12 0.64) rotate(-0.12)"/><ellipse class="cls-1" cx="293.14" cy="60.34" rx="2.88" ry="2.4" transform="translate(-0.13 0.64) rotate(-0.12)"/><ellipse cx="292.04" cy="58.29" rx="0.75" ry="0.76" transform="translate(-0.13 0.63) rotate(-0.12)"/><path class="cls-1" d="M305.28,48.77a1.28,1.28,0,1,1,2.55,0,1.26,1.26,0,0,1-1.3,1.43C305.82,50.19,305.28,49.78,305.28,48.77Z"/><ellipse class="cls-2" cx="308.21" cy="47.69" rx="2.36" ry="1.95" transform="matrix(1, 0, 0, 1, -0.1, 0.67)"/><ellipse class="cls-1" cx="308.5" cy="49.39" rx="1.85" ry="1.36" transform="translate(-0.11 0.67) rotate(-0.12)"/><ellipse cx="307.8" cy="48.23" rx="0.48" ry="0.43" transform="translate(-0.1 0.67) rotate(-0.12)"/><path class="cls-1" d="M283.63,43.75c0-2.07,1.11-2.69,2.49-2.69s2.49.61,2.49,2.68-1.17,2.93-2.54,2.93S283.64,45.83,283.63,43.75Z"/><ellipse class="cls-2" cx="289.36" cy="41.53" rx="4.61" ry="4.02" transform="translate(-0.09 0.63) rotate(-0.12)"/><ellipse class="cls-1" cx="289.93" cy="45.04" rx="3.61" ry="2.81" transform="translate(-0.1 0.63) rotate(-0.12)"/><ellipse cx="288.55" cy="42.65" rx="0.93" ry="0.89" transform="translate(-0.09 0.63) rotate(-0.12)"/><path class="cls-1" d="M306.29,34.42c0-1.37.62-1.78,1.39-1.78s1.4.4,1.4,1.77-.66,1.94-1.43,1.94S306.29,35.79,306.29,34.42Z"/><ellipse class="cls-2" cx="309.49" cy="32.95" rx="2.58" ry="2.66" transform="translate(-0.07 0.67) rotate(-0.12)"/><ellipse class="cls-1" cx="309.81" cy="35.27" rx="2.02" ry="1.86" transform="translate(-0.08 0.67) rotate(-0.12)"/><ellipse cx="309.04" cy="33.69" rx="0.52" ry="0.59" transform="translate(-0.07 0.67) rotate(-0.12)"/><path class="cls-1" d="M292.72,28.38c0-1.46.74-1.9,1.66-1.9s1.67.43,1.67,1.89-.78,2.07-1.7,2.07S292.72,29.84,292.72,28.38Z"/><ellipse class="cls-2" cx="296.55" cy="26.81" rx="3.09" ry="2.84" transform="translate(-0.06 0.64) rotate(-0.12)"/><ellipse class="cls-1" cx="296.93" cy="29.29" rx="2.42" ry="1.98" transform="translate(-0.06 0.65) rotate(-0.12)"/><circle cx="296.01" cy="27.6" r="0.63"/><path class="cls-1" d="M300.28,61.62c0-.9.56-1.17,1.26-1.17s1.27.26,1.27,1.16a1.18,1.18,0,0,1-1.3,1.27A1.13,1.13,0,0,1,300.28,61.62Z"/><ellipse class="cls-2" cx="303.19" cy="60.65" rx="2.34" ry="1.74" transform="translate(-0.13 0.66) rotate(-0.12)"/><ellipse class="cls-1" cx="303.48" cy="62.17" rx="1.84" ry="1.22" transform="translate(-0.13 0.66) rotate(-0.12)"/><ellipse cx="302.78" cy="61.14" rx="0.47" ry="0.38" transform="translate(-0.13 0.66) rotate(-0.12)"/><path class="cls-1" d="M280.11,53.12c0-1.06.55-1.38,1.23-1.38s1.24.31,1.24,1.38-.58,1.5-1.26,1.5S280.11,54.19,280.11,53.12Z"/><ellipse class="cls-2" cx="282.95" cy="51.98" rx="2.29" ry="2.07" transform="translate(-0.11 0.61) rotate(-0.12)"/><ellipse class="cls-1" cx="283.23" cy="53.78" rx="1.79" ry="1.44" transform="matrix(1, 0, 0, 1, -0.12, 0.62)"/><ellipse cx="282.55" cy="52.56" rx="0.46" ry="0.46" transform="translate(-0.11 0.61) rotate(-0.12)"/><path class="cls-1" d="M265.88,22c0-1.47.74-1.9,1.66-1.9s1.67.43,1.67,1.89-.78,2.06-1.7,2.07S265.88,23.41,265.88,22Z"/><ellipse class="cls-2" cx="269.71" cy="20.37" rx="3.09" ry="2.84" transform="translate(-0.04 0.59) rotate(-0.12)"/><ellipse class="cls-1" cx="270.09" cy="22.85" rx="2.42" ry="1.98" transform="translate(-0.05 0.59) rotate(-0.12)"/><circle cx="269.17" cy="21.17" r="0.63"/><path class="cls-1" d="M266.52,49.12a2.07,2.07,0,1,1,4.13,0,2,2,0,0,1-2.11,2.3C267.4,51.42,266.53,50.75,266.52,49.12Z"/><ellipse class="cls-2" cx="271.26" cy="47.37" rx="3.82" ry="3.15" transform="translate(-0.1 0.59) rotate(-0.12)"/><ellipse class="cls-1" cx="271.73" cy="50.13" rx="2.99" ry="2.2" transform="translate(-0.11 0.59) rotate(-0.12)"/><ellipse cx="270.59" cy="48.25" rx="0.77" ry="0.7" transform="translate(-0.1 0.59) rotate(-0.12)"/><path class="cls-1" d="M321.21,42.33c0-1.07.55-1.39,1.23-1.39s1.24.32,1.24,1.38-.58,1.51-1.26,1.51S321.21,43.39,321.21,42.33Z"/><ellipse class="cls-2" cx="324.05" cy="41.18" rx="2.29" ry="2.07" transform="translate(-0.09 0.7) rotate(-0.12)"/><ellipse class="cls-1" cx="324.33" cy="42.99" rx="1.79" ry="1.44" transform="translate(-0.09 0.7) rotate(-0.12)"/><ellipse cx="323.65" cy="41.76" rx="0.46" ry="0.46" transform="translate(-0.09 0.7) rotate(-0.12)"/><path class="cls-1" d="M316.15,54.05c0-2.07,1.11-2.69,2.48-2.69s2.5.61,2.5,2.68S320,57,318.58,57,316.15,56.12,316.15,54.05Z"/><ellipse class="cls-2" cx="321.87" cy="51.82" rx="4.61" ry="4.02" transform="translate(-0.11 0.7) rotate(-0.12)"/><ellipse class="cls-1" cx="322.44" cy="55.34" rx="3.61" ry="2.81" transform="translate(-0.12 0.7) rotate(-0.12)"/><ellipse cx="321.07" cy="52.95" rx="0.93" ry="0.89" transform="translate(-0.11 0.7) rotate(-0.12)"/><path class="cls-1" d="M392.77,28.89c0,1.46-.72,1.9-1.65,1.91s-1.67-.42-1.68-1.88.77-2.07,1.69-2.08S392.76,27.43,392.77,28.89Z"/><ellipse class="cls-2" cx="388.95" cy="30.49" rx="3.09" ry="2.84" transform="translate(-0.27 3.7) rotate(-0.55)"/><ellipse class="cls-1" cx="388.56" cy="28.01" rx="2.42" ry="1.98" transform="matrix(1, -0.01, 0.01, 1, -0.25, 3.7)"/><circle cx="389.49" cy="29.69" r="0.63"/><path class="cls-1" d="M361.36,31.63c0,1.53-.81,2-1.83,2s-1.85-.44-1.87-2,.86-2.18,1.88-2.19S361.34,30.09,361.36,31.63Z"/><ellipse class="cls-2" cx="357.12" cy="33.31" rx="3.42" ry="2.98" transform="translate(-0.3 3.4) rotate(-0.55)"/><ellipse class="cls-1" cx="356.68" cy="30.71" rx="2.68" ry="2.08" transform="translate(-0.28 3.39) rotate(-0.55)"/><ellipse cx="357.72" cy="32.47" rx="0.69" ry="0.66" transform="translate(-0.29 3.4) rotate(-0.55)"/><path class="cls-1" d="M304.66,41.32a2.07,2.07,0,1,1-4.13,0,2,2,0,0,1,2.09-2.31C303.76,39,304.64,39.7,304.66,41.32Z"/><ellipse class="cls-2" cx="299.93" cy="43.11" rx="3.82" ry="3.15" transform="translate(-0.4 2.86) rotate(-0.55)"/><ellipse class="cls-1" cx="299.44" cy="40.35" rx="2.99" ry="2.2" transform="translate(-0.37 2.85) rotate(-0.55)"/><ellipse cx="300.59" cy="42.22" rx="0.77" ry="0.7" transform="translate(-0.39 2.86) rotate(-0.55)"/><path class="cls-1" d="M344.6,9.21c0,1.77-.87,2.31-2,2.32s-2-.51-2-2.28.92-2.51,2-2.52S344.58,7.44,344.6,9.21Z"/><ellipse class="cls-2" cx="340.04" cy="11.15" rx="3.68" ry="3.44" transform="translate(-0.09 3.24) rotate(-0.55)"/><ellipse class="cls-1" cx="339.57" cy="8.15" rx="2.88" ry="2.4" transform="translate(-0.06 3.23) rotate(-0.55)"/><ellipse cx="340.68" cy="10.18" rx="0.75" ry="0.76" transform="translate(-0.08 3.24) rotate(-0.55)"/><path class="cls-1" d="M327.51,19.8a1.28,1.28,0,1,1-2.55,0,1.26,1.26,0,0,1,1.29-1.44C327,18.39,327.5,18.8,327.51,19.8Z"/><ellipse class="cls-2" cx="324.58" cy="20.91" rx="2.36" ry="1.95" transform="translate(-0.18 3.09) rotate(-0.55)"/><ellipse class="cls-1" cx="324.28" cy="19.2" rx="1.85" ry="1.36" transform="translate(-0.17 3.09) rotate(-0.55)"/><ellipse cx="324.99" cy="20.36" rx="0.48" ry="0.43" transform="translate(-0.18 3.09) rotate(-0.55)"/><path class="cls-1" d="M349.19,24.66c0,2.07-1.09,2.7-2.46,2.71s-2.5-.59-2.52-2.66,1.15-2.94,2.53-2.95S349.17,22.59,349.19,24.66Z"/><ellipse class="cls-2" cx="343.48" cy="26.93" rx="4.61" ry="4.02" transform="translate(-0.24 3.27) rotate(-0.55)"/><ellipse class="cls-1" cx="342.89" cy="23.42" rx="3.61" ry="2.81" transform="translate(-0.21 3.26) rotate(-0.55)"/><ellipse cx="344.28" cy="25.8" rx="0.93" ry="0.89" transform="translate(-0.23 3.28) rotate(-0.55)"/><path class="cls-1" d="M326.6,34.16c0,1.37-.61,1.79-1.37,1.79s-1.4-.39-1.41-1.76.64-1.95,1.4-1.95S326.59,32.79,326.6,34.16Z"/><ellipse class="cls-2" cx="323.41" cy="35.66" rx="2.58" ry="2.66" transform="translate(-0.32 3.08) rotate(-0.55)"/><ellipse class="cls-1" cx="323.08" cy="33.33" rx="2.02" ry="1.86" transform="translate(-0.3 3.08) rotate(-0.55)"/><ellipse cx="323.86" cy="34.91" rx="0.52" ry="0.59" transform="translate(-0.32 3.08) rotate(-0.55)"/><path class="cls-1" d="M340.22,40.1c0,1.47-.73,1.91-1.65,1.92s-1.67-.42-1.68-1.89.77-2.07,1.69-2.08S340.21,38.64,340.22,40.1Z"/><ellipse class="cls-2" cx="336.4" cy="41.7" rx="3.09" ry="2.84" transform="translate(-0.38 3.2) rotate(-0.55)"/><ellipse class="cls-1" cx="336" cy="39.23" rx="2.42" ry="1.98" transform="translate(-0.36 3.2) rotate(-0.55)"/><circle cx="336.94" cy="40.91" r="0.63"/><path class="cls-1" d="M332.42,6.92c0,.9-.56,1.17-1.26,1.18s-1.27-.26-1.28-1.16a1.19,1.19,0,0,1,1.29-1.28A1.14,1.14,0,0,1,332.42,6.92Z"/><ellipse class="cls-2" cx="329.51" cy="7.91" rx="2.34" ry="1.74" transform="translate(-0.06 3.14) rotate(-0.55)"/><ellipse class="cls-1" cx="329.21" cy="6.39" rx="1.84" ry="1.22" transform="translate(-0.05 3.13) rotate(-0.55)"/><ellipse cx="329.92" cy="7.42" rx="0.47" ry="0.38" transform="translate(-0.06 3.14) rotate(-0.55)"/><path class="cls-1" d="M352.65,15.27c0,1.06-.54,1.38-1.23,1.39s-1.23-.31-1.24-1.37.57-1.51,1.25-1.52S352.64,14.2,352.65,15.27Z"/><ellipse class="cls-2" cx="349.82" cy="16.43" rx="2.29" ry="2.07" transform="translate(-0.14 3.33) rotate(-0.55)"/><ellipse class="cls-1" cx="349.52" cy="14.63" rx="1.79" ry="1.44" transform="translate(-0.12 3.33) rotate(-0.55)"/><ellipse cx="350.21" cy="15.85" rx="0.46" ry="0.46" transform="translate(-0.13 3.33) rotate(-0.55)"/><path class="cls-1" d="M367.1,46.34c0,1.46-.72,1.9-1.65,1.91s-1.67-.42-1.68-1.88.77-2.07,1.69-2.08S367.09,44.88,367.1,46.34Z"/><ellipse class="cls-2" cx="363.28" cy="47.94" rx="3.09" ry="2.84" transform="translate(-0.44 3.46) rotate(-0.55)"/><ellipse class="cls-1" cx="362.89" cy="45.46" rx="2.42" ry="1.98" transform="translate(-0.42 3.45) rotate(-0.55)"/><circle cx="363.82" cy="47.14" r="0.63"/><path class="cls-1" d="M366.26,19.17a2.06,2.06,0,1,1-4.12,0,2,2,0,0,1,2.09-2.32C365.37,16.88,366.25,17.54,366.26,19.17Z"/><ellipse class="cls-2" cx="361.53" cy="20.95" rx="3.82" ry="3.15" transform="translate(-0.18 3.44) rotate(-0.55)"/><ellipse class="cls-1" cx="361.04" cy="18.2" rx="2.99" ry="2.2" transform="matrix(1, -0.01, 0.01, 1, -0.16, 3.44)"/><ellipse cx="362.2" cy="20.06" rx="0.77" ry="0.7" transform="translate(-0.17 3.45) rotate(-0.55)"/><path class="cls-1" d="M311.62,26.36c0,1.07-.54,1.39-1.22,1.4s-1.24-.31-1.25-1.37.57-1.51,1.25-1.52S311.61,25.3,311.62,26.36Z"/><ellipse class="cls-2" cx="308.79" cy="27.53" rx="2.29" ry="2.07" transform="translate(-0.25 2.94) rotate(-0.55)"/><ellipse class="cls-1" cx="308.5" cy="25.73" rx="1.79" ry="1.44" transform="translate(-0.23 2.94) rotate(-0.55)"/><ellipse cx="309.19" cy="26.95" rx="0.46" ry="0.46" transform="translate(-0.24 2.94) rotate(-0.55)"/><path class="cls-1" d="M316.6,14.6c0,2.08-1.09,2.7-2.46,2.72s-2.5-.6-2.52-2.67,1.15-2.93,2.53-3S316.58,12.53,316.6,14.6Z"/><ellipse class="cls-2" cx="310.89" cy="16.87" rx="4.61" ry="4.02" transform="matrix(1, -0.01, 0.01, 1, -0.15, 2.96)"/><ellipse class="cls-1" cx="310.3" cy="13.36" rx="3.61" ry="2.81" transform="translate(-0.11 2.95) rotate(-0.55)"/><ellipse cx="311.69" cy="15.74" rx="0.93" ry="0.89" transform="matrix(1, -0.01, 0.01, 1, -0.14, 2.97)"/><path class="cls-1" d="M227.87,88.64c-.08-1.46.65-1.93,1.57-2s1.68.35,1.76,1.81-.68,2.1-1.6,2.15S227.94,90.1,227.87,88.64Z"/><ellipse class="cls-2" cx="231.62" cy="86.88" rx="3.09" ry="2.84" transform="translate(-4.2 12.15) rotate(-2.98)"/><ellipse class="cls-1" cx="232.12" cy="89.34" rx="2.42" ry="1.98" transform="translate(-4.33 12.18) rotate(-2.98)"/><circle cx="231.12" cy="87.7" r="0.63"/><path class="cls-1" d="M259.14,84.57c-.08-1.53.72-2,1.74-2.08s1.87.36,1.95,1.89-.76,2.21-1.78,2.27S259.22,86.11,259.14,84.57Z"/><ellipse class="cls-2" cx="263.3" cy="82.71" rx="3.42" ry="2.98" transform="translate(-3.94 13.79) rotate(-2.98)"/><ellipse class="cls-1" cx="263.85" cy="85.29" rx="2.68" ry="2.08" transform="translate(-4.08 13.83) rotate(-2.98)"/><ellipse cx="262.74" cy="83.57" rx="0.69" ry="0.66" transform="translate(-3.99 13.77) rotate(-2.98)"/><path class="cls-1" d="M315.38,72.48a2.06,2.06,0,1,1,4.12-.22,2,2,0,0,1-2,2.41C316.37,74.72,315.46,74.1,315.38,72.48Z"/><ellipse class="cls-2" cx="320.03" cy="70.49" rx="3.82" ry="3.15" transform="translate(-3.23 16.72) rotate(-2.98)"/><ellipse class="cls-1" cx="320.63" cy="73.23" rx="2.99" ry="2.2" transform="translate(-3.37 16.76) rotate(-2.98)"/><ellipse cx="319.4" cy="71.41" rx="0.77" ry="0.7" transform="translate(-3.28 16.69) rotate(-2.98)"/><path class="cls-1" d="M276.84,106.26c-.1-1.77.77-2.35,1.86-2.4s2,.42,2.11,2.19-.81,2.55-1.91,2.6S276.93,108,276.84,106.26Z"/><ellipse class="cls-2" cx="281.31" cy="104.12" rx="3.68" ry="3.44" transform="translate(-5.03 14.76) rotate(-2.98)"/><ellipse class="cls-1" cx="281.91" cy="107.1" rx="2.88" ry="2.4" transform="translate(-5.18 14.79) rotate(-2.98)"/><ellipse cx="280.71" cy="105.12" rx="0.75" ry="0.76" transform="translate(-5.08 14.73) rotate(-2.98)"/><path class="cls-1" d="M293.46,95a1.28,1.28,0,1,1,2.55-.13,1.25,1.25,0,0,1-1.23,1.48C294.07,96.34,293.51,96,293.46,95Z"/><ellipse class="cls-2" cx="296.34" cy="93.72" rx="2.36" ry="1.95" transform="translate(-4.47 15.52) rotate(-2.98)"/><ellipse class="cls-1" cx="296.71" cy="95.41" rx="1.85" ry="1.36" transform="translate(-4.56 15.55) rotate(-2.98)"/><ellipse cx="295.95" cy="94.29" rx="0.48" ry="0.43" transform="translate(-4.5 15.51) rotate(-2.98)"/><path class="cls-1" d="M271.59,91c-.11-2.07,1-2.75,2.35-2.82s2.52.49,2.63,2.56-1,3-2.4,3S271.7,93.09,271.59,91Z"/><ellipse class="cls-2" cx="277.2" cy="88.51" rx="4.61" ry="4.02" transform="translate(-4.22 14.52) rotate(-2.98)"/><ellipse class="cls-1" cx="277.94" cy="91.99" rx="3.61" ry="2.81" transform="translate(-4.4 14.57) rotate(-2.98)"/><ellipse cx="276.45" cy="89.67" rx="0.93" ry="0.89" transform="translate(-4.29 14.49) rotate(-2.98)"/><path class="cls-1" d="M293.76,80.57c-.07-1.37.53-1.81,1.3-1.85s1.41.33,1.48,1.7-.56,2-1.33,2S293.83,81.94,293.76,80.57Z"/><ellipse class="cls-2" cx="296.88" cy="78.93" rx="2.58" ry="2.66" transform="translate(-3.7 15.53) rotate(-2.98)"/><ellipse class="cls-1" cx="297.32" cy="81.24" rx="2.02" ry="1.86" transform="translate(-3.82 15.56) rotate(-2.98)"/><ellipse cx="296.47" cy="79.7" rx="0.52" ry="0.59" transform="translate(-3.74 15.51) rotate(-2.98)"/><path class="cls-1" d="M279.9,75.21c-.08-1.46.64-1.94,1.56-2s1.69.34,1.77,1.8-.68,2.11-1.6,2.15S280,76.67,279.9,75.21Z"/><ellipse class="cls-2" cx="283.65" cy="73.45" rx="3.09" ry="2.84" transform="translate(-3.43 14.84) rotate(-2.98)"/><ellipse class="cls-1" cx="284.15" cy="75.9" rx="2.42" ry="1.98" transform="translate(-3.56 14.87) rotate(-2.98)"/><circle cx="283.15" cy="74.27" r="0.63"/><path class="cls-1" d="M289.11,108c-.05-.9.5-1.2,1.2-1.23s1.28.2,1.32,1.1a1.18,1.18,0,0,1-1.23,1.33A1.13,1.13,0,0,1,289.11,108Z"/><ellipse class="cls-2" cx="291.96" cy="106.92" rx="2.34" ry="1.74" transform="translate(-5.16 15.32) rotate(-2.98)"/><ellipse class="cls-1" cx="292.33" cy="108.42" rx="1.84" ry="1.22" transform="translate(-5.24 15.34) rotate(-2.98)"/><ellipse cx="291.58" cy="107.42" rx="0.47" ry="0.38" transform="translate(-5.19 15.3) rotate(-2.98)"/><path class="cls-1" d="M268.54,100.55c-.06-1.07.48-1.41,1.16-1.45s1.25.26,1.31,1.32-.51,1.53-1.19,1.57S268.59,101.61,268.54,100.55Z"/><ellipse class="cls-2" cx="271.32" cy="99.26" rx="2.29" ry="2.07" transform="translate(-4.79 14.23) rotate(-2.98)"/><ellipse class="cls-1" cx="271.69" cy="101.05" rx="1.79" ry="1.44" transform="translate(-4.88 14.25) rotate(-2.98)"/><ellipse cx="270.95" cy="99.86" rx="0.46" ry="0.46" transform="translate(-4.82 14.21) rotate(-2.98)"/><path class="cls-1" d="M252.77,70.12c-.07-1.46.65-1.93,1.57-2s1.69.35,1.77,1.81-.68,2.1-1.6,2.15S252.85,71.58,252.77,70.12Z"/><ellipse class="cls-2" cx="256.52" cy="68.36" rx="3.09" ry="2.84" transform="translate(-3.21 13.42) rotate(-2.98)"/><ellipse class="cls-1" cx="257.03" cy="70.82" rx="2.42" ry="1.98" transform="translate(-3.33 13.45) rotate(-2.98)"/><circle cx="256.02" cy="69.18" r="0.63"/><path class="cls-1" d="M254.77,97.23a2.06,2.06,0,1,1,4.12-.22,2,2,0,0,1-2,2.41C255.76,99.48,254.85,98.85,254.77,97.23Z"/><ellipse class="cls-2" cx="259.42" cy="95.25" rx="3.82" ry="3.15" transform="translate(-4.6 13.61) rotate(-2.98)"/><ellipse class="cls-1" cx="260.02" cy="97.98" rx="2.99" ry="2.2" transform="translate(-4.74 13.64) rotate(-2.98)"/><ellipse cx="258.79" cy="96.16" rx="0.77" ry="0.7" transform="translate(-4.65 13.58) rotate(-2.98)"/><path class="cls-1" d="M309.05,87.72c-.05-1.06.48-1.41,1.17-1.45s1.25.26,1.3,1.32-.5,1.53-1.19,1.57S309.11,88.78,309.05,87.72Z"/><ellipse class="cls-2" cx="311.83" cy="86.43" rx="2.29" ry="2.07" transform="translate(-4.07 16.32) rotate(-2.98)"/><ellipse class="cls-1" cx="312.2" cy="88.22" rx="1.79" ry="1.44" transform="translate(-4.16 16.34) rotate(-2.98)"/><ellipse cx="311.46" cy="87.03" rx="0.46" ry="0.46" transform="matrix(1, -0.05, 0.05, 1, -4.1, 16.3)"/><path class="cls-1" d="M304.58,99.68c-.11-2.07,1-2.74,2.35-2.81s2.52.48,2.62,2.55-1,3-2.39,3S304.69,101.75,304.58,99.68Z"/><ellipse class="cls-2" cx="310.19" cy="97.17" rx="4.61" ry="4.02" transform="translate(-4.63 16.25) rotate(-2.98)"/><ellipse class="cls-1" cx="310.93" cy="100.65" rx="3.61" ry="2.81" transform="translate(-4.81 16.29) rotate(-2.98)"/><ellipse cx="309.44" cy="98.33" rx="0.93" ry="0.89" transform="translate(-4.69 16.21) rotate(-2.98)"/><path class="cls-1" d="M381.64,116.64c0,1.46-.73,1.9-1.65,1.91s-1.67-.42-1.68-1.88.77-2.07,1.69-2.08S381.63,115.18,381.64,116.64Z"/><ellipse class="cls-2" cx="377.82" cy="118.24" rx="3.09" ry="2.84" transform="translate(-1.11 3.6) rotate(-0.55)"/><ellipse class="cls-1" cx="377.42" cy="115.76" rx="2.42" ry="1.98" transform="translate(-1.08 3.6) rotate(-0.55)"/><circle cx="378.36" cy="117.44" r="0.63"/><path class="cls-1" d="M350.23,119.38c0,1.53-.81,2-1.83,2s-1.86-.44-1.87-2,.85-2.18,1.87-2.19S350.21,117.84,350.23,119.38Z"/><ellipse class="cls-2" cx="345.99" cy="121.06" rx="3.42" ry="2.98" transform="translate(-1.14 3.3) rotate(-0.55)"/><ellipse class="cls-1" cx="345.55" cy="118.46" rx="2.68" ry="2.08" transform="translate(-1.11 3.29) rotate(-0.55)"/><ellipse cx="346.58" cy="120.22" rx="0.69" ry="0.66" transform="translate(-1.13 3.3) rotate(-0.55)"/><path class="cls-1" d="M293.52,129.07a2.06,2.06,0,1,1-4.12,0,2,2,0,0,1,2.09-2.31C292.63,126.79,293.51,127.45,293.52,129.07Z"/><ellipse class="cls-2" cx="288.8" cy="130.86" rx="3.82" ry="3.15" transform="translate(-1.23 2.75) rotate(-0.55)"/><ellipse class="cls-1" cx="288.3" cy="128.1" rx="2.99" ry="2.2" transform="translate(-1.21 2.75) rotate(-0.55)"/><ellipse cx="289.46" cy="129.97" rx="0.77" ry="0.7" transform="translate(-1.22 2.76) rotate(-0.55)"/><path class="cls-1" d="M333.47,97c0,1.77-.87,2.31-2,2.32s-2-.51-2-2.28.91-2.51,2-2.52S333.45,95.19,333.47,97Z"/><ellipse class="cls-2" cx="328.91" cy="98.9" rx="3.68" ry="3.44" transform="translate(-0.93 3.13) rotate(-0.55)"/><ellipse class="cls-1" cx="328.43" cy="95.9" rx="2.88" ry="2.4" transform="matrix(1, -0.01, 0.01, 1, -0.9, 3.13)"/><ellipse cx="329.55" cy="97.93" rx="0.75" ry="0.76" transform="translate(-0.92 3.14) rotate(-0.55)"/><path class="cls-1" d="M316.37,107.55a1.28,1.28,0,1,1-2.55,0,1.26,1.26,0,0,1,1.3-1.44C315.82,106.14,316.36,106.55,316.37,107.55Z"/><ellipse class="cls-2" cx="313.45" cy="108.66" rx="2.36" ry="1.95" transform="translate(-1.02 2.99) rotate(-0.55)"/><ellipse class="cls-1" cx="313.15" cy="106.95" rx="1.85" ry="1.36" transform="translate(-1 2.98) rotate(-0.55)"/><ellipse cx="313.86" cy="108.11" rx="0.48" ry="0.43" transform="translate(-1.01 2.99) rotate(-0.55)"/><path class="cls-1" d="M338.06,112.41c0,2.07-1.09,2.7-2.47,2.71s-2.49-.59-2.51-2.66,1.15-2.94,2.52-2.95S338,110.34,338.06,112.41Z"/><ellipse class="cls-2" cx="332.35" cy="114.68" rx="4.61" ry="4.02" transform="translate(-1.08 3.17) rotate(-0.55)"/><ellipse class="cls-1" cx="331.76" cy="111.17" rx="3.61" ry="2.81" transform="translate(-1.04 3.16) rotate(-0.55)"/><ellipse cx="333.15" cy="113.55" rx="0.93" ry="0.89" transform="translate(-1.07 3.17) rotate(-0.55)"/><path class="cls-1" d="M315.47,121.91c0,1.37-.61,1.79-1.38,1.79s-1.39-.39-1.41-1.76.64-2,1.41-2S315.46,120.54,315.47,121.91Z"/><ellipse class="cls-2" cx="312.28" cy="123.41" rx="2.58" ry="2.66" transform="translate(-1.16 2.98) rotate(-0.55)"/><ellipse class="cls-1" cx="311.94" cy="121.08" rx="2.02" ry="1.86" transform="translate(-1.14 2.97) rotate(-0.55)"/><ellipse cx="312.72" cy="122.66" rx="0.52" ry="0.59" transform="translate(-1.15 2.98) rotate(-0.55)"/><path class="cls-1" d="M329.09,127.85c0,1.47-.73,1.91-1.65,1.92s-1.67-.42-1.69-1.89.77-2.07,1.69-2.08S329.08,126.39,329.09,127.85Z"/><ellipse class="cls-2" cx="325.27" cy="129.45" rx="3.09" ry="2.84" transform="translate(-1.22 3.1) rotate(-0.55)"/><ellipse class="cls-1" cx="324.87" cy="126.98" rx="2.42" ry="1.98" transform="matrix(1, -0.01, 0.01, 1, -1.19, 3.1)"/><circle cx="325.8" cy="128.66" r="0.63"/><path class="cls-1" d="M321.28,94.67c0,.9-.55,1.17-1.25,1.18s-1.27-.26-1.28-1.15A1.18,1.18,0,0,1,320,93.42,1.12,1.12,0,0,1,321.28,94.67Z"/><ellipse class="cls-2" cx="318.38" cy="95.66" rx="2.34" ry="1.74" transform="matrix(1, -0.01, 0.01, 1, -0.9, 3.03)"/><ellipse class="cls-1" cx="318.08" cy="94.14" rx="1.84" ry="1.22" transform="translate(-0.88 3.03) rotate(-0.55)"/><ellipse cx="318.79" cy="95.17" rx="0.47" ry="0.38" transform="translate(-0.89 3.04) rotate(-0.55)"/><path class="cls-1" d="M341.51,103c0,1.06-.54,1.38-1.22,1.39s-1.24-.3-1.25-1.37.57-1.51,1.26-1.52S341.5,102,341.51,103Z"/><ellipse class="cls-2" cx="338.68" cy="104.18" rx="2.29" ry="2.07" transform="translate(-0.98 3.23) rotate(-0.55)"/><ellipse class="cls-1" cx="338.39" cy="102.38" rx="1.79" ry="1.44" transform="translate(-0.96 3.22) rotate(-0.55)"/><ellipse cx="339.08" cy="103.6" rx="0.46" ry="0.46" transform="translate(-0.97 3.23) rotate(-0.55)"/><path class="cls-1" d="M356,134.09c0,1.46-.73,1.9-1.65,1.91s-1.67-.42-1.68-1.88.77-2.07,1.69-2.08S356,132.63,356,134.09Z"/><ellipse class="cls-2" cx="352.15" cy="135.69" rx="3.09" ry="2.84" transform="matrix(1, -0.01, 0.01, 1, -1.27, 3.36)"/><ellipse class="cls-1" cx="351.75" cy="133.21" rx="2.42" ry="1.98" transform="translate(-1.25 3.35) rotate(-0.55)"/><circle cx="352.69" cy="134.89" r="0.63"/><path class="cls-1" d="M355.13,106.92a2.07,2.07,0,1,1-4.13,0,2,2,0,0,1,2.1-2.32C354.24,104.63,355.11,105.29,355.13,106.92Z"/><ellipse class="cls-2" cx="350.4" cy="108.7" rx="3.82" ry="3.15" transform="translate(-1.02 3.34) rotate(-0.55)"/><ellipse class="cls-1" cx="349.91" cy="105.95" rx="2.99" ry="2.2" transform="translate(-0.99 3.33) rotate(-0.55)"/><ellipse cx="351.06" cy="107.81" rx="0.77" ry="0.7" transform="translate(-1.01 3.34) rotate(-0.55)"/><path class="cls-1" d="M300.49,114.11c0,1.07-.54,1.39-1.22,1.4s-1.24-.31-1.25-1.37.57-1.51,1.25-1.52S300.48,113.05,300.49,114.11Z"/><ellipse class="cls-2" cx="297.66" cy="115.28" rx="2.29" ry="2.07" transform="translate(-1.08 2.84) rotate(-0.55)"/><ellipse class="cls-1" cx="297.36" cy="113.48" rx="1.79" ry="1.44" transform="translate(-1.07 2.83) rotate(-0.55)"/><ellipse cx="298.06" cy="114.7" rx="0.46" ry="0.46" transform="translate(-1.08 2.84) rotate(-0.55)"/><path class="cls-1" d="M305.47,102.35c0,2.08-1.09,2.7-2.47,2.72s-2.49-.6-2.51-2.67,1.15-2.93,2.52-3S305.45,100.28,305.47,102.35Z"/><ellipse class="cls-2" cx="299.76" cy="104.62" rx="4.61" ry="4.02" transform="matrix(1, -0.01, 0.01, 1, -0.98, 2.86)"/><ellipse class="cls-1" cx="299.17" cy="101.11" rx="3.61" ry="2.81" transform="translate(-0.95 2.85) rotate(-0.55)"/><ellipse cx="300.56" cy="103.49" rx="0.93" ry="0.89" transform="translate(-0.97 2.86) rotate(-0.55)"/><path class="cls-1" d="M192.2,128.55c0-1.47.74-1.9,1.66-1.91s1.67.44,1.68,1.9-.79,2.06-1.71,2.07S192.2,130,192.2,128.55Z"/><ellipse class="cls-2" cx="196.03" cy="126.97" rx="3.09" ry="2.84" transform="matrix(1, 0, 0, 1, -0.28, 0.43)"/><ellipse class="cls-1" cx="196.41" cy="129.45" rx="2.42" ry="1.98" transform="translate(-0.28 0.43) rotate(-0.12)"/><circle cx="195.49" cy="127.77" r="0.63"/><path class="cls-1" d="M223.63,126c0-1.54.83-2,1.85-2s1.85.45,1.85,2-.87,2.17-1.89,2.17S223.64,127.58,223.63,126Z"/><ellipse class="cls-2" cx="227.88" cy="124.39" rx="3.42" ry="2.98" transform="translate(-0.27 0.5) rotate(-0.12)"/><ellipse class="cls-1" cx="228.3" cy="126.99" rx="2.68" ry="2.08" transform="translate(-0.28 0.5) rotate(-0.12)"/><ellipse cx="227.28" cy="125.22" rx="0.69" ry="0.66" transform="translate(-0.27 0.49) rotate(-0.12)"/><path class="cls-1" d="M280.41,116.76a2.06,2.06,0,1,1,4.12,0,2,2,0,0,1-2.11,2.3C281.29,119.05,280.41,118.38,280.41,116.76Z"/><ellipse class="cls-2" cx="285.15" cy="115.01" rx="3.82" ry="3.15" transform="translate(-0.25 0.62) rotate(-0.12)"/><ellipse class="cls-1" cx="285.62" cy="117.77" rx="2.99" ry="2.2" transform="translate(-0.26 0.62) rotate(-0.12)"/><ellipse cx="284.48" cy="115.89" rx="0.77" ry="0.7" transform="translate(-0.25 0.62) rotate(-0.12)"/><path class="cls-1" d="M240.23,148.57c0-1.77.89-2.3,2-2.3s2,.52,2,2.3-.94,2.5-2,2.5S240.23,150.35,240.23,148.57Z"/><ellipse class="cls-2" cx="244.8" cy="146.67" rx="3.68" ry="3.44" transform="translate(-0.32 0.53) rotate(-0.12)"/><ellipse class="cls-1" cx="245.26" cy="149.68" rx="2.88" ry="2.4" transform="translate(-0.32 0.53) rotate(-0.12)"/><ellipse cx="244.16" cy="147.63" rx="0.75" ry="0.76" transform="translate(-0.32 0.53) rotate(-0.12)"/><path class="cls-1" d="M257.4,138.11a1.28,1.28,0,1,1,2.55,0,1.26,1.26,0,0,1-1.3,1.43C257.94,139.53,257.4,139.12,257.4,138.11Z"/><ellipse class="cls-2" cx="260.33" cy="137.03" rx="2.36" ry="1.95" transform="translate(-0.3 0.57) rotate(-0.12)"/><ellipse class="cls-1" cx="260.62" cy="138.73" rx="1.85" ry="1.36" transform="translate(-0.3 0.57) rotate(-0.12)"/><ellipse cx="259.92" cy="137.57" rx="0.48" ry="0.43" transform="translate(-0.3 0.57) rotate(-0.12)"/><path class="cls-1" d="M235.75,133.09c0-2.07,1.11-2.69,2.49-2.69s2.49.61,2.49,2.68-1.17,2.93-2.54,2.93S235.75,135.16,235.75,133.09Z"/><ellipse class="cls-2" cx="241.48" cy="130.86" rx="4.61" ry="4.02" transform="translate(-0.28 0.52) rotate(-0.12)"/><ellipse class="cls-1" cx="242.04" cy="134.38" rx="3.61" ry="2.81" transform="translate(-0.29 0.53) rotate(-0.12)"/><ellipse cx="240.67" cy="131.99" rx="0.93" ry="0.89" transform="translate(-0.29 0.52) rotate(-0.12)"/><path class="cls-1" d="M258.41,123.76c0-1.37.62-1.78,1.39-1.78s1.39.4,1.4,1.77-.66,1.94-1.43,1.94S258.41,125.13,258.41,123.76Z"/><ellipse class="cls-2" cx="261.61" cy="122.28" rx="2.58" ry="2.66" transform="translate(-0.27 0.57) rotate(-0.12)"/><ellipse class="cls-1" cx="261.93" cy="124.61" rx="2.02" ry="1.86" transform="translate(-0.27 0.57) rotate(-0.12)"/><ellipse cx="261.16" cy="123.03" rx="0.52" ry="0.59" transform="matrix(1, 0, 0, 1, -0.27, 0.57)"/><path class="cls-1" d="M244.83,117.72c0-1.47.75-1.9,1.67-1.9s1.67.43,1.67,1.89-.79,2.06-1.71,2.07S244.84,119.18,244.83,117.72Z"/><ellipse class="cls-2" cx="248.67" cy="116.14" rx="3.09" ry="2.84" transform="translate(-0.25 0.54) rotate(-0.12)"/><ellipse class="cls-1" cx="249.05" cy="118.62" rx="2.42" ry="1.98" transform="translate(-0.26 0.54) rotate(-0.12)"/><circle cx="248.13" cy="116.94" r="0.63"/><path class="cls-1" d="M252.4,151c0-.89.56-1.16,1.26-1.16s1.27.26,1.27,1.16a1.18,1.18,0,0,1-1.3,1.27A1.13,1.13,0,0,1,252.4,151Z"/><ellipse class="cls-2" cx="255.31" cy="149.99" rx="2.34" ry="1.74" transform="translate(-0.33 0.56) rotate(-0.12)"/><ellipse class="cls-1" cx="255.59" cy="151.51" rx="1.84" ry="1.22" transform="translate(-0.33 0.56) rotate(-0.12)"/><ellipse cx="254.9" cy="150.48" rx="0.47" ry="0.38" transform="translate(-0.33 0.55) rotate(-0.12)"/><path class="cls-1" d="M232.23,142.46c0-1.06.55-1.38,1.23-1.38s1.24.31,1.24,1.38-.58,1.5-1.27,1.5S232.23,143.53,232.23,142.46Z"/><ellipse class="cls-2" cx="235.07" cy="141.32" rx="2.29" ry="2.07" transform="translate(-0.31 0.51) rotate(-0.12)"/><ellipse class="cls-1" cx="235.35" cy="143.12" rx="1.79" ry="1.44" transform="translate(-0.31 0.51) rotate(-0.12)"/><ellipse cx="234.67" cy="141.89" rx="0.46" ry="0.46" transform="translate(-0.31 0.51) rotate(-0.12)"/><path class="cls-1" d="M218,111.28c0-1.46.74-1.89,1.66-1.9s1.67.44,1.67,1.9-.78,2.06-1.7,2.06S218,112.75,218,111.28Z"/><ellipse class="cls-2" cx="221.83" cy="109.71" rx="3.09" ry="2.84" transform="translate(-0.24 0.48) rotate(-0.12)"/><ellipse class="cls-1" cx="222.21" cy="112.19" rx="2.42" ry="1.98" transform="translate(-0.24 0.48) rotate(-0.12)"/><circle cx="221.29" cy="110.51" r="0.63"/><path class="cls-1" d="M218.64,138.46a2.07,2.07,0,1,1,4.13,0,2,2,0,0,1-2.11,2.3C219.52,140.75,218.64,140.09,218.64,138.46Z"/><ellipse class="cls-2" cx="223.38" cy="136.71" rx="3.82" ry="3.15" transform="translate(-0.3 0.49) rotate(-0.12)"/><ellipse class="cls-1" cx="223.85" cy="139.47" rx="2.99" ry="2.2" transform="translate(-0.3 0.49) rotate(-0.12)"/><ellipse cx="222.71" cy="137.59" rx="0.77" ry="0.7" transform="translate(-0.3 0.48) rotate(-0.12)"/><path class="cls-1" d="M273.33,131.66c0-1.06.55-1.38,1.23-1.38s1.24.31,1.24,1.38-.58,1.5-1.26,1.51S273.33,132.73,273.33,131.66Z"/><ellipse class="cls-2" cx="276.17" cy="130.52" rx="2.29" ry="2.07" transform="translate(-0.28 0.6) rotate(-0.12)"/><ellipse class="cls-1" cx="276.45" cy="132.33" rx="1.79" ry="1.44" transform="translate(-0.29 0.6) rotate(-0.12)"/><ellipse cx="275.77" cy="131.1" rx="0.46" ry="0.46" transform="translate(-0.28 0.6) rotate(-0.12)"/><path class="cls-1" d="M268.27,143.39c0-2.07,1.1-2.69,2.48-2.7s2.49.61,2.5,2.69-1.17,2.92-2.55,2.93S268.27,145.46,268.27,143.39Z"/><ellipse class="cls-2" cx="273.99" cy="141.16" rx="4.61" ry="4.02" transform="translate(-0.31 0.6) rotate(-0.12)"/><ellipse class="cls-1" cx="274.56" cy="144.67" rx="3.61" ry="2.81" transform="translate(-0.31 0.6) rotate(-0.12)"/><ellipse cx="273.18" cy="142.28" rx="0.93" ry="0.89" transform="translate(-0.31 0.59) rotate(-0.12)"/></g></g></g></svg>