<svg xmlns="http://www.w3.org/2000/svg" viewBox="0 0 295.44 396.96"><defs><style>.cls-1{fill:#fff;}.cls-2{fill:red;}</style></defs><title>Asset 16</title><g id="Layer_2" data-name="Layer 2"><g id="Layer_1-2" data-name="Layer 1"><path d="M282.26,264c-4.79-2.32-9.46-4.91-14.34-7-3.28-1.43-5-2.54-3.74-6.9,1.91-6.78-.42-9.4-7.42-10.39-10.27-1.45-20.55-2.88-30.83-4.37a23,23,0,0,1-2.77-.91c-3.29-.92-6.54-2.22-9.9-2.6-4.37-.49-8.89.21-13.21-.48-2.72-.43-5.18-2.45-8.45-4.11l3.61-2.77c-3.33-1.22-7.06-1.71-9.62-3.71-4.54-3.54-2.3-13.18,3.31-16.2a13.2,13.2,0,0,0,4.58-19l.1,0h0c-.08-1.38-.61-3.35-.52-4.51a1.11,1.11,0,0,1,.32-.84c5.92-4.43,12.2-8.37,18.33-12.53,4.43-3,9.31-5.58,13.09-9.28,6.21-6.08,7.85-14.28,7.72-22.65l6.17-1.64-4.1-5.34.14.16c-.09-2.72-.1-5.45-.29-8.16a20.94,20.94,0,0,0-.86-5.78c-2.54-6.74-5.24-13.43-8-20.07-1.83-4.38-3.91-8.65-5.61-12.38l1.81.37a31,31,0,0,1-3-3.28c-4.13-1.64-8.21-3.66-12.28-5.67a25.41,25.41,0,0,1-4.66-1.43l-.39.91,11.24,7.11C211,86,209.2,91.49,207.45,97l1.57.53,3.12-5.94c2.14,8.54,0,15.07-1.87,23.13-4.32-6-7.78-10.67-11.05-15.44a50.35,50.35,0,0,1-8.54-26.69c-.06-1.27-.06-3,.69-3.75a11.12,11.12,0,0,0,1.72-2,29.76,29.76,0,0,1-3.56-4.27l-.27,0,.1-.2a28.22,28.22,0,0,1-1.86-3.19c-.69.06-1.4.1-2.12.13a36,36,0,0,1-3.81-.48c0,.79,0,1.67-.08,2.66a48.23,48.23,0,0,0-5.9-4.14c-4.71-2.37-9.5-4.6-14.39-6.55a24,24,0,0,0-7.67-1.64c-3.35-.16-6.78.75-10.09.37s-6.49-1.73-8.55,2.39c-.29.58-2,.38-3.07.64-2.69.67-6.29.52-7.9,2.23-7,7.48-13.71,15.32-20.09,23.36-9.28,11.71-11.68,26.21-15.27,40.13-1.79,7-3.08,14.25,4.38,19.43.61.42.85,2.4.41,3.16-2.64,4.54-3.48,9.12,0,14.44-3.93-.37-6.76-.39-9.47-.94a39,39,0,0,0-29.53,5.55c-3,1.86-6.12,3.5-8.73,5.77-8,7-16,14-23.63,21.41-5.62,5.51-7.15,12.18-2.67,19.35Q31.7,226.2,44.12,246c.73,1.18,1.78,2.81,1.48,3.9A97.35,97.35,0,0,1,41,263.28c-3.83,8.65-8.08,17.12-12,25.71-5.55,12.05-8.28,24.32,1.41,35.44,3.73,4.27,2.88,6.66-.53,9.73-9.12,8.21-18.22,16.45-27.37,24.63C.82,360.25-1,361.31.67,364c5.81,9.34,11.27,19,21.7,24.13a66.86,66.86,0,0,0,8.1,2.84c1-3.23,2.18-6.43,2.88-9.72.28-1.34-.58-2.9-.8-4.38-1.63-11-.83-21,10-27.45a24,24,0,0,0,4.18-3.56c2.76-2.71,5.49-2.75,9-1.12a64,64,0,0,0,14.46,4.93c15.06-13.94,42.52-68,42.52-68s23.4-28.28,35,6.65,7.21,50.59,7.21,50.59h0c2.64.39,5.31.74,8,1.14-1.29,5.78-2.53,11.53-3.88,17.26a15.18,15.18,0,0,1-5.52,8.93c-4.15,3.42-6.89,8.55-11.28,14.31,12.45,5.79,23.5,11,34.66,16,1.49.66,5,.36,5.15-.23.67-2.15,1.09-5,.22-6.91-2-4.52-5-8.6-7.23-13.05-.95-1.92-2.11-5.05-1.25-6.35,5.57-8.42,7-19.31,17.94-24.66,7.9-3.89,14.17-11.15,21.07-17,8.25-7,13.63-15.38,9.64-26.68-4.41-12.51-9.36-24.82-14-37.24a13.13,13.13,0,0,1-1.26-4.63c.05-3.63.51-7.25.82-11,3.24,0,7.56-.36,11.79.1a88.68,88.68,0,0,1,12.93,2.7,6.57,6.57,0,0,1,3.32,2.51c1.34,1.92,1.81,4.7,3.49,6.1,8.54,7.15,17,14.52,26.21,20.71,5.95,4,13.05,6.45,19.91,8.8,2.38.82,6.88.2,8.07-1.45,1.65-2.29,2.33-6.72,1.21-9.26C292.23,272.94,288.69,267.15,282.26,264Z"/><path class="cls-1" d="M39.73,200.55c1.36-15.22,10.21-26.89,28.38-27.43,11.41-.34,23.39,12.53,23.14,24.43C91,208.7,77.39,222.66,66.73,222.66,52.73,222.66,39.66,212,39.73,200.55Zm19.08-22.47-12.34,8.38,4.64,7.36a39.64,39.64,0,0,0-4.34,3.8c-.87,1-2.12,2.79-1.76,3.6,2,4.61,4.43,9,7,14l9.37-7,6.16,8.2c3.44-2.13,6.53-4.07,9.65-5.95,2.83-1.7,3.83-3.52.94-6.2a47.18,47.18,0,0,1-4-4.89,48.88,48.88,0,0,0,5-3.93c.68-.68,1.38-2.38,1-2.88-2.67-3.78-5.2-7.89-8.71-10.74-1.07-.86-5.09,1.94-7.78,3-.27.11-.64,0-1.38-.09Z"/><path class="cls-2" d="M58.81,178.08l3.4,6.68c.74.05,1.11.2,1.38.09,2.69-1.09,6.71-3.89,7.78-3,3.51,2.85,6,7,8.71,10.74.36.5-.34,2.2-1,2.88a48.88,48.88,0,0,1-5,3.93,47.18,47.18,0,0,0,4,4.89c2.89,2.68,1.89,4.5-.94,6.2-3.12,1.88-6.21,3.82-9.65,5.95l-6.16-8.2-9.37,7c-2.52-4.94-5-9.36-7-14-.36-.81.89-2.59,1.76-3.6a39.64,39.64,0,0,1,4.34-3.8l-4.64-7.36Z"/><path d="M213.35,78.85s3.3-6.27,7.48.84a8.18,8.18,0,0,0,10.95,3.62s2.86-3.26,2.73-5.61c0,0,1.05-1.48,2.06-1s1.74-1,1.68-1.41a16.87,16.87,0,0,0-1.09-2.24l.66-.62s3.43.2,3.66-.4.6-1.71.6-1.71l0-.78s1.33-3.47,2.71-3.15,2.42.47,2.42.47,3,.51,2.5-4.55a93,93,0,0,1-.33-10.1s.93-3.49,2.35-4.1,3.15-16.18,3.15-16.18,2.63-2.75,2.45-4.13-3.18-7.46-3.18-7.46l-1-.64-.08-.93-5.45-6.45-8.57-7s-6.7-4.22-11.66-5.1S212.84,1,212.84,1s-11.12,4.55-14.26,10.92-5.41,7.73-5.41,7.73l-.23-1.13-9.46,1.72-.68,1.41s-19.35,6.51-26.46,21.68-6.59,27.54-6.59,27.54l-2,14.67,8.92-5.19s22.25-20.76,21.9-32.42S183,30.21,183,30.21l10.13-1.47s-3.89,9.07-3.39,11.27,5.44,7.09,5.44,7.09l-5.22,11.81S198.37,80.51,213.35,78.85Z"/><path d="M186.22,63.59c3.44.82,5.27-2,6.8-4.66,2.58-4.52,5.09-9.08,7.63-13.62a1.5,1.5,0,0,0-2.59-1.51l-4.77,8.51c-.94,1.67-3.81,9-6.27,8.38-1.88-.45-2.68,2.45-.8,2.9Z"/><path d="M218.6,65.27q-2.67,10-6.15,19.84c-.64,1.83,2.25,2.61,2.9.8q3.48-9.8,6.14-19.84a1.5,1.5,0,0,0-2.89-.8Z"/><path d="M220.33,66.19a1.5,1.5,0,0,0,0-3,1.5,1.5,0,0,0,0,3Z"/><path d="M205.19,84.86a236.38,236.38,0,0,1,.88-37h-3a60.74,60.74,0,0,1-2.63,22.29c-1,3.29-2.11,6.52-3.33,9.72-1.14,3-2.7,9.8-5.76,11.26l2.21,1.69a144.86,144.86,0,0,1,9.15-28.58h-2.59c3.54,5.29-3.88,14.61-6.41,19.3l-9,16.77,2.74,1.16c3.21-19.49,7.41-39.36,19.69-55.36l-2.59-1.51-16.1,28.64,2.8.75C190,64.1,199.4,56.65,201.85,47.51c.5-1.9-2.22-2.58-2.9-.8a110.12,110.12,0,0,1-8.8,18.07l2.74.35a5.46,5.46,0,0,1,2.19-6.47l-2.26-1.29a72.21,72.21,0,0,1-2.35,12.71,1.51,1.51,0,0,0,2.74,1.16c3.46-5.72,7-11.26,12.25-15.5L203,54.28a129,129,0,0,1-14.87,33l2.8.76c0-9.18,2.3-19,10.22-24.55l-2-2-12,23.17,2.74,1.15c1.63-5.91,3.36-11.79,5.25-17.62,1.83-5.68,3.48-12.15,9-15.35l-2.26-1.3a38.79,38.79,0,0,1-3.66,16.28l2.79.76a25,25,0,0,1,3.33-12.74l-2.74-1.16-5.92,20,2.89.79a32.07,32.07,0,0,1,6.4-15.4l-2.74-.35a28.78,28.78,0,0,1-1.67,16.12l2.9.8a23.77,23.77,0,0,1,4-10.51l-2.74-1.15a38,38,0,0,1-3.46,11.67l2.79.76a79.57,79.57,0,0,1,2.76-15l-3-.4a18.87,18.87,0,0,1-1.49,8.49L205,71.55c1.67-4.62,3.55-9.13,5.67-13.57L208,57.62a14.81,14.81,0,0,1-.95,8l2.95.4,1.56-3.66L208.79,62a6.43,6.43,0,0,1-1.47,6.32l2.56,1.06.79-2-2.56-1.06a7.1,7.1,0,0,1-2.36,6.12l2.57,1.06a17.55,17.55,0,0,1,5.73-11.38l-2.51-.66a19.1,19.1,0,0,1-2.71,13.53l2.74,1.16a49.3,49.3,0,0,1,7.27-12.8l-2.56-1.06a50.88,50.88,0,0,1-3.47,15.35h2.89a42.26,42.26,0,0,1-.65-10.1h-3a9.06,9.06,0,0,1-5.57,8.7l2.2.89a6.88,6.88,0,0,1,2.1-7.72l-2.13-2.12A59.78,59.78,0,0,0,194.6,93.43c-.73,3-2.12,7.11.68,9.44,4.16,3.45,11.68,2.16,12.75,9l2.2-1.7A42.89,42.89,0,0,1,196,93.41l-2.59,1.51a71.32,71.32,0,0,0,11.89,16.43,1.51,1.51,0,0,0,2.51-1.46l-5-19.15c-.49-1.89-3.26-1.08-2.89.79q2.43,12.36,5.26,24.63l2.9-.8a259.65,259.65,0,0,1-7.29-45.27h-3q2.42,22.18,6.91,44a1.51,1.51,0,0,0,3-.4q-1-25.78-.92-51.59h-3a277.52,277.52,0,0,0,3.05,40.51c.25,1.65,3.13,1.28,2.95-.4a213.22,213.22,0,0,1-.93-34h-3q.18,16,1.91,31.91c.2,1.88,3,2,3,0l.28-20c0-1.94-2.92-1.92-3,0a163,163,0,0,0,1.82,31.75c.26,1.66,3.1,1.28,2.95-.4a167.42,167.42,0,0,1,.39-34.31h-3a238.36,238.36,0,0,1-.05,27.39l2.95-.4a129.19,129.19,0,0,1-3.83-30.83h-3q.6,14,2.2,27.89c.22,1.87,3.13,2,3,0a238.59,238.59,0,0,1-.23-27.14h-3a90.92,90.92,0,0,1,0,22.72l2.94-.4c-2.78-9.37-3.46-19-4-28.73a1.5,1.5,0,0,0-3,0l-.29,12.13c0,1.52.47,12.74-.83,13.16l1.7.69a51.86,51.86,0,0,1-4.83-13.77c-.36-1.73-2.85-1.21-2.95.4a74.38,74.38,0,0,0,2,22l2.9-.8a62.27,62.27,0,0,0-4.48-10.46c-.79-1.46-3.35-.46-2.74,1.16l4.94,13.21a1.51,1.51,0,0,0,3-.39l.63-22.43-2.95.4,3.56,21.34c.85,5.1,1.5,10.08,5.08,14a1.51,1.51,0,0,0,2.56-1.06,93.85,93.85,0,0,0-2.94-15.93l-2.74,1.15A13.85,13.85,0,0,1,207,108l2.95-.4c-1-7-1.73-14-2.11-21.1-.15-2.94-.25-5.89-.29-8.83q0-2.46,0-4.92l0-2c-.08-3,.13-2.63.63,1.1-.79,1.74,1.79,3.27,2.59,1.51,1.21-2.67,2.45-6.41-.64-8.35-2.34-1.46-4.7-.26-5.39,2.26-.78,2.81-.24,6.47-.21,9.37q.06,5.41.37,10.81c.4,7,1.16,14,2.16,20.91.24,1.66,3.09,1.29,2.94-.4a21.69,21.69,0,0,0-1.74-6.9c-.68-1.58-3.19-.44-2.74,1.16a90.26,90.26,0,0,1,2.83,15.13l2.56-1.06c-3.85-4.27-4-11-4.92-16.43L203,82.27c-.29-1.72-2.9-1.23-2.95.4l-.63,22.43,2.95-.4-4.95-13.22-2.74,1.16a58.16,58.16,0,0,1,4.17,9.74,1.51,1.51,0,0,0,2.9-.8,71.35,71.35,0,0,1-1.9-21.25l-3,.4a55.19,55.19,0,0,0,5.14,14.48,1.49,1.49,0,0,0,1.69.69c3.58-1.15,2.79-5.51,2.86-8.59l.46-19.59h-3c.56,10,1.25,19.91,4.11,29.53a1.51,1.51,0,0,0,3-.4,90.92,90.92,0,0,0,0-22.72,1.5,1.5,0,0,0-3,0,238.59,238.59,0,0,0,.23,27.14h3q-1.6-13.9-2.2-27.89a1.5,1.5,0,0,0-3,0A132.77,132.77,0,0,0,210.12,105c.42,1.7,2.85,1.24,2.94-.4a238.36,238.36,0,0,0,.05-27.39,1.5,1.5,0,0,0-3,0,167.42,167.42,0,0,0-.39,34.31l2.94-.4A158.7,158.7,0,0,1,211,80.18h-3l-.28,20h3q-1.72-15.92-1.91-31.91a1.5,1.5,0,0,0-3,0,213.22,213.22,0,0,0,.93,34l2.94-.4a273.48,273.48,0,0,1-2.94-39.71,1.5,1.5,0,0,0-3,0q-.1,25.8.92,51.59l2.95-.39q-4.42-21.47-6.81-43.25c-.2-1.88-3.14-2-3,0a265,265,0,0,0,7.39,46.07c.48,1.87,3.33,1.08,2.9-.8q-2.83-12.27-5.27-24.62l-2.89.79,5,19.16,2.51-1.46A68.7,68.7,0,0,1,196,93.41c-.9-1.73-3.42-.21-2.59,1.51a45.81,45.81,0,0,0,15.3,17.83c1.2.84,2.38-.54,2.2-1.69a9.14,9.14,0,0,0-4.06-6.33c-4.4-3.12-10.34-2.11-9.57-9.69.93-9.21,7.46-18.9,13.49-25.54a1.5,1.5,0,0,0-2.13-2.12A9.88,9.88,0,0,0,205.79,78a1.53,1.53,0,0,0,2.2.9,11.87,11.87,0,0,0,7.06-11.29,1.5,1.5,0,0,0-3,0,45.28,45.28,0,0,0,.76,10.9c.3,1.61,2.41,1.22,2.89,0a53.35,53.35,0,0,0,3.58-16.15c.08-1.23-1.76-2.09-2.56-1.06a54,54,0,0,0-8,14.12c-.63,1.62,1.89,2.56,2.74,1.15a22.56,22.56,0,0,0,3-15.83,1.52,1.52,0,0,0-2.51-.67,20.78,20.78,0,0,0-6.61,13.5c-.15,1.38,1.69,1.87,2.56,1.06a9.53,9.53,0,0,0,3.23-8.24c-.1-1.15-1.67-2.17-2.56-1.07a6.57,6.57,0,0,0-1.67,4.08,1.51,1.51,0,0,0,2.56,1.06,10.28,10.28,0,0,0,2.25-9.24c-.3-1.39-2-1.29-2.75-.35a9.47,9.47,0,0,0-2,5.17c-.22,1.8,2.38,1.84,2.94.4a17.61,17.61,0,0,0,1-9.63,1.51,1.51,0,0,0-2.74-.36,153.84,153.84,0,0,0-6,14.29c-.57,1.58,2.07,2.72,2.74,1.15a22.47,22.47,0,0,0,1.9-10,1.51,1.51,0,0,0-2.95-.4A83.82,83.82,0,0,0,201,77.31a1.51,1.51,0,0,0,2.8.75,40.44,40.44,0,0,0,3.76-12.38,1.51,1.51,0,0,0-2.74-1.16,25.31,25.31,0,0,0-4.35,11.22,1.51,1.51,0,0,0,2.9.8A31.65,31.65,0,0,0,205,58.82c-.25-1.42-2-1.27-2.74-.36a33.57,33.57,0,0,0-6.7,16.12c-.26,1.85,2.32,2.7,2.89.79l5.92-20a1.5,1.5,0,0,0-2.74-1.15,28.36,28.36,0,0,0-3.74,14.25c0,1.4,2.15,2.15,2.8.76a42.52,42.52,0,0,0,4.07-17.8,1.51,1.51,0,0,0-2.25-1.29c-4.7,2.73-7,7.3-8.75,12.28C191.14,69.84,189,77.41,186.91,85c-.44,1.61,1.94,2.7,2.74,1.16l12-23.17c.64-1.23-.74-3-2-2-8.85,6.2-11.69,16.79-11.71,27.14a1.51,1.51,0,0,0,2.79.75,132.28,132.28,0,0,0,15.18-33.7c.45-1.56-1.42-2.33-2.51-1.46-5.46,4.4-9.13,10.17-12.72,16.1l2.74,1.16a76.62,76.62,0,0,0,2.46-13.51,1.51,1.51,0,0,0-2.26-1.3A8.82,8.82,0,0,0,190,65.93a1.52,1.52,0,0,0,2.74.36,115,115,0,0,0,9.11-18.78l-2.9-.8c-2.54,9.53-12,16.8-10.73,27.32.17,1.37,2,2.19,2.79.76l16.1-28.64c1-1.74-1.45-3-2.59-1.51-12.43,16.19-16.74,36.35-20,56.07-.26,1.56,1.87,2.77,2.74,1.15l12.65-23.47c2.55-4.74,6.27-10.43,2.79-15.63-.55-.83-2.1-1.1-2.59,0a148.62,148.62,0,0,0-9.45,29.3,1.52,1.52,0,0,0,2.2,1.7c2.56-1.23,3.35-3.61,4.37-6.12,1.78-4.32,3.5-8.66,5-13.09,2.87-8.66,4.6-17.51,3.85-26.65a1.5,1.5,0,0,0-3,0,236.38,236.38,0,0,0-.88,37c.11,1.92,3.11,1.93,3,0Z"/></g></g></svg>